/* XPM */
static char *f9ba003db84a4c36cf1c7d1257560a36ZBZAp74Hzmo0VeML[] = {
/* columns rows colors chars-per-pixel */
"75 100 246 2 ",
"   c #040503",
".  c #090A06",
"X  c #170B04",
"o  c #18120C",
"O  c #1B1A15",
"+  c #0C110C",
"@  c #27150A",
"#  c #371908",
"$  c #291A12",
"%  c #28150A",
"&  c #1E231D",
"*  c #25251D",
"=  c #38241A",
"-  c #3A200F",
";  c #2A2B24",
":  c #272824",
">  c #352C24",
",  c #2D322B",
"<  c #33332C",
"1  c #3A362B",
"2  c #343532",
"3  c #353933",
"4  c #3B3B34",
"5  c #3C3D3A",
"6  c #373736",
"7  c #282B32",
"8  c #1F2322",
"9  c #472919",
"0  c #532B17",
"q  c #54301C",
"w  c #493427",
"e  c #593826",
"r  c #453C36",
"t  c #4B3429",
"y  c #643C2A",
"u  c #633D30",
"i  c #582F16",
"p  c #3D423C",
"a  c #42433C",
"s  c #474539",
"d  c #594436",
"f  c #5B4B32",
"g  c #69422D",
"h  c #684938",
"j  c #764B37",
"k  c #79543D",
"l  c #6C4F3A",
"z  c #393D45",
"x  c #3C4448",
"c  c #4B4B44",
"v  c #474946",
"b  c #554C44",
"n  c #4E534B",
"m  c #54534C",
"M  c #5A554B",
"N  c #5C5A4D",
"B  c #545548",
"V  c #5D5B53",
"C  c #585A56",
"Z  c #4B4F55",
"A  c #695547",
"S  c #785745",
"D  c #615E53",
"F  c #6A5E56",
"G  c #734F46",
"H  c #5D6259",
"J  c #646156",
"K  c #65635A",
"L  c #69655B",
"P  c #6C6A5D",
"I  c #69685A",
"U  c #776758",
"Y  c #757059",
"T  c #585C64",
"R  c #5D6465",
"E  c #626562",
"W  c #656A64",
"Q  c #6B6C64",
"!  c #6B6E6A",
"~  c #666A69",
"^  c #736D64",
"/  c #6D726C",
"(  c #6C7168",
")  c #7B7465",
"_  c #73746C",
"`  c #7C766A",
"'  c #7C7B6C",
"]  c #767666",
"[  c #696B75",
"{  c #6D7475",
"}  c #737573",
"|  c #757A74",
" . c #7B7C74",
".. c #747C7B",
"X. c #7B7D7B",
"o. c #767578",
"O. c #85543B",
"+. c #855B44",
"@. c #865B48",
"#. c #8B5C4B",
"$. c #8D634C",
"%. c #84634B",
"&. c #94644D",
"*. c #896754",
"=. c #936553",
"-. c #9A6B54",
";. c #966B57",
":. c #9B735B",
">. c #96745B",
",. c #8C725B",
"<. c #A3745C",
"1. c #A57A5D",
"2. c #A16D58",
"3. c #827B6C",
"4. c #867767",
"5. c #9B7B63",
"6. c #967864",
"7. c #837D73",
"8. c #827B7B",
"9. c #8C7269",
"0. c #A87A65",
"q. c #B17E66",
"w. c #7D827C",
"e. c #7A8278",
"r. c #88826C",
"t. c #848274",
"y. c #8A8473",
"u. c #83847C",
"i. c #8B857B",
"p. c #8C8B7C",
"a. c #8A8977",
"s. c #918D7C",
"d. c #958675",
"f. c #99967C",
"g. c #938A73",
"h. c #AA836A",
"j. c #B2836C",
"k. c #B58569",
"l. c #A89B67",
"z. c #A98975",
"x. c #B78A75",
"c. c #A79B79",
"v. c #BA9379",
"b. c #AAA37A",
"n. c #B4A879",
"m. c #B0A66E",
"M. c #A7805F",
"N. c #C2937C",
"B. c #C89579",
"V. c #C28D73",
"C. c #C2AD7D",
"Z. c #757B82",
"A. c #7A7D84",
"S. c #777A86",
"D. c #757B88",
"F. c #817F81",
"G. c #7B8384",
"H. c #7D838B",
"J. c #7A8586",
"K. c #7E8590",
"L. c #828583",
"P. c #858A84",
"I. c #8B8C84",
"U. c #82858D",
"Y. c #848B8C",
"T. c #8B8D8B",
"R. c #8D8682",
"E. c #938D85",
"W. c #8D928B",
"Q. c #8B9186",
"!. c #949384",
"~. c #999585",
"^. c #9B9985",
"/. c #93948C",
"(. c #9A958B",
"). c #9C9A8C",
"_. c #959989",
"`. c #858A93",
"'. c #8A8D95",
"]. c #8B8E99",
"[. c #828791",
"{. c #8C9294",
"}. c #8D929B",
"|. c #8C9694",
" X c #939693",
".X c #959993",
"XX c #9A9C94",
"oX c #91959D",
"OX c #959A9C",
"+X c #9B9D9B",
"@X c #989797",
"#X c #A39987",
"$X c #B99886",
"%X c #A39D94",
"&X c #A89287",
"*X c #9DA19B",
"=X c #9BA296",
"-X c #ABA686",
";X c #B6AA87",
":X c #B9B28A",
">X c #A4A295",
",X c #A3A49C",
"<X c #AAA69B",
"1X c #AAA99D",
"2X c #A8A998",
"3X c #B6A997",
"4X c #BAB598",
"5X c #ADB09D",
"6X c #959AA2",
"7X c #999DA4",
"8X c #9498A2",
"9X c #8F96A2",
"0X c #9DA3A4",
"qX c #9EA3A9",
"wX c #A2A5A4",
"eX c #A4A9A3",
"rX c #ABABA3",
"tX c #A4AAAC",
"yX c #AAACAC",
"uX c #A2A5AA",
"iX c #B5ACA4",
"pX c #ADB2AA",
"aX c #B6B5A8",
"sX c #AAAEB3",
"dX c #A5AAB2",
"fX c #ADB2B5",
"gX c #ADB4B9",
"hX c #B6B9B8",
"jX c #C49984",
"kX c #D19E8B",
"lX c #C7A28A",
"zX c #C8A895",
"xX c #CBB394",
"cX c #C9B7A5",
"vX c #CEB9A6",
"bX c #BCC2B9",
"nX c #C6C4BB",
"mX c #D6C2AC",
"MX c #B9BDC2",
"NX c #BDC2C6",
"BX c #C7C8C6",
"VX c #D7D8D5",
"CX c #CFD2D1",
"ZX c #E3E4DD",
"AX c #F2F2ED",
"SX c #D9DEE5",
/* pixels */
"p n H H n a c M ^ ` i.I./.I.Q./._._.u._ ! W V : n K J Q ~.^.~.f.!.~._._.!.p.p.p.E.XXI.M B B M N V D J J K J J J J D D D D V V V N N V >X<X<Xu.v : * , ",
", p v C Q  . .Q N M m V _ t.I././._.u.! / / W : a I J P ).^.^.~.~.~.~.!.s.p.p.p.i.(.(. .N M B V D D J J K K J J D D D V V V V V V N N !.<X1X(.J * : : ",
"; 3 v C Q  .E.(.E.R.t.` J N N I e.p.u._ _ ! W , 2 W J I ).^.^.^.!.!.~.s.p.p.p.p.a.E.>Xp.I c B V J J K K K K K J D D V V V V V V V N N ` <X1X>X .: : : ",
"; , 4 c C ^ R.%X(.E.t.R.E.I.e. .K H C H / / ! 5 ; Q J K _.!.^.^.~.!.~.s.p.p.p.p.a.R.%Xp._ B M N K K K K K K K D D V V V V V V V N M N K <X<X,Xu.a * : ",
"& ; 3 p n Q 7.i.(.(.E.(.!.Q.I././.p. .} _ ! ! c : W K K !.!.^.^.^.~.!.i.p.p.i.i.y.p.!.(.i.P b M K K K K K K K D D D V V D D V V N N N N ).1X,XI.V O : ",
"& : < 4 a C ^ R.(.(.R.E.E.!.Q._..X,XXXQ.! ! / K : H W K p._.^.^.^.~.s.i.p.a.i.a.a.7.a.!.%X7.M B J K L K K K K D D D D D D D D V V V N M a.1X1X_._ * * ",
", O O ; 5 m Q i.(.(.(.I.E.I.I.I./.XX.X.X}  ./ E : m ! I u.).^.~.^.s.y.y.i.i.i.i.s.3.y.t.%Xp.^ M V K L L K K K D J J D D D D D D V D N M ] 2X1X,X .1 * ",
"3 : : ; 3 v m K 8.R.I.u.I.I./././..X_.*X} } ! ! : c ! Q t.).).~.s.t.3.7.y.y.y.i.y.y.t.7.E.%Xt.M N J L L K K K K K K J J D D D D N D N N J >X1X,Xt.c * ",
"p p & , p m K V V K ! | u.I.W..X.X=XXX*XP.Q ! ! < 5 _ I  .).).!.s.^ ^ y.y.7.i.y.7.y.3.7.7.%Xs.^ M N P I J I J J J J J J J J J J D D M N V !.,X1XI.I * ",
"H , , 3 3 v V W  .u.w./ K K / w.Q.!.XXeXP.C E E p 6 Q _  .!.).).!.3.^ ) 7.y.7.7.7.7.3.3.3.!.%X7.D M J I J K K K J K J J J J J J D D N N N u.1X1X).] < ",
"C C 2 n v 2 c H ! | u.P.W.P.} K H P | T.T.C v n 5 p C I  .).~.).~.s.) P 3.7.3.7.7.3.3.3.` r.2Xs.P M D I J J J I J J J J J J J J D D N N M ^ 1X1X,X' p ",
"w.C n v 3 , a C H | P.L.w.w.P./..XI.u.! E W ! C v 5 v a V ).(.).).).t.Y ) 3.` 3.3.` 3.` ) ) ~.(.7.V M J J D J K K K K K J J J J D D N N M D ,X2X,X .B ",
"BX! E 3 2 ; 2 n H ! | w.P.P.P.W.W./. X+XeXL.! } ! , c m C (.).(.^.).!.3.Y ^ ` ` ) ) 3.` ) ) t.>XE.I B D J J J J K K K K J J J J J N N N M M ).1X1Xp.K ",
"AXyXK C 5 & 3 3 C E | L.P.P.I./././.*XXX XT.X.} / , C / Q XX).(.^.^.#Xs.) Y ) ` ` ) ` ) ) ` ) >X(.` M N J J I J K K K K J J J J J D N D N M u.1X1X(._ ",
"CXAX/.E c 3 * 5 n H /  .w.u.P.W./..X X.X+X+X} X.! v v W Q (.!.).^.^.#X^.t.) ) ) ` ` ` ) ) ) Y p.%Xp.J M D D K J K K K K J J J J J D D D M N Q 1X1XXX .",
"X.ZXVX .C v , : 3 n W } u.T././..X.X.XXX.X,XX.X.X.v a } Q (.).(.).^.^.^.s.` ^ ) ) ` ) ) ) ) ) ` >X(.^ M D D K K K K K J J J J J J D D D M N D 1X1X,X .",
"C I.AXnXK C 3 : , 5 n H K e.P.I./..X.X.X*X0XT.} X.C 2 } Q E.(.).^.^.^.Y t.p.^ ` 3.^ ` ` ^ ) ` ) !.(.7.D J Q V m m M V D D D D J K D N J D M N >X,XrXu.",
"5 V ,XAX,XC 5 p ; , v ! _  ._ Q | P..X.XXX.XT.o.L.~ : / } R.!.(.^.).a.N P ~.` ` ` ` ` ) ' ` ^ 3.!.i.^ M b a 6 6 , , < 1 4 s b N D D M D D N N !.1XrXI.",
"3 p m aXCXX.C < ; ; 2 m ! L..X.XW.w./ _ w. X XX.o.X.2 ! Q i.<X(.~.~.Q D J  .p.^ ` ] ' ` ] ' ' ' ] b > < 4 2 : O O O o o o O * < m J J D B N M ' rX,X.X",
"5 5 v Q ZXnX! C < 6 < a C | W..XW.W.XXXXT.L.w.! L.X.2 ! } i.XX(.~.' D Q K I ).' ) ] 7.' _ t.7.Q m a 2 ; O o o o o + . + . . . + : a M D N N M ^ 1X,XXX",
"C 5 5 c u.AX,XJ v m a < n _ P.W./.P.I./..X*X*XW.w.P.v K _ t.!.).(.K J P P P t.!.] ` ' ` u. .L M v < : $ O O O o .   . + + . . . . + ; m D N B J 1X2X>X",
"NXC 2 5 C wXAX/.C 4 * * v C / W.W.W./..X.X X XW.! o.C C C ` >X).(.t.D D P P P p.t._ ' t.u.! m v 6 : O O o X X X o .   . . .     .   + ; s N V M %X2X2X",
"CXMXZ 6 6 H BXVX_ B a * < m H H ( } u.W..X.X.X+XX.C C  ./.u.XX).(.%X] J K I I ] !.'  . .Q M v < ; O o o X X X o X X X . . . . . .     . O s D V E.1X2X",
"VXCXtXv 6 4 _ VXnXV 4 ; : , n | u. ._ / / | L./.L.T.L.pXAXaX(.>XXX).!.I H K K J I.u._ m a < $ O o o o X X @ % % % $ $ o X .           .   o a V t.1X<X",
"VXCXCXOX5 < 5  .ZX,Xc < O : v E I.T.XXT.u.w.! _ | I.T.rXAXnX%X>XXX).).7.V K K V ] ).L 1 O o o X X @ = 9 w e G S *.U A e $ X X X   . .   .   O m _ 2X<X",
"CXCXVXhXo.< 2 5 u.pXC 4 2 : , C / +X XW./.W./.u.L.T. X,XAXVX1X(.%X(.^ ] Q N V P J  .1 o $ X X X w d U 6.h.h.h.0.5.>.*.G t = % X X .     .   . ; D 1X2X",
"dXCXBXBXwXv : < 2 _ P.v < a ; v V w.I.I.W.I.W.XX XI. X.XAXVX1X>X).I s r  .J J V K s o $ X o = 4.z.z.$X$X$Xv.x.x.x.j.0.>.S h t = @ X .   .     + r >X1X",
"BXyXBXBXyXP.5 : : ; P.u.6 2 O 2 C W  .|  .I.W./.+XT./..XAXAX1X>Xp.r 1 4 M  .m D D > o X @ e &X$X$X$X$X$Xv.jXN.jXv.x.x.j.5.*.S g w $ X .       . O 7.<X",
"MXNXyXfXfX+XT.v : : 6 +XW 5 : * 6 V L./.I._ _ w./. XW./.VXAXrX>X(.b 1 4 a  .K V b $ $ @ t $XzXzXlXlXlXjXjXjXN.v.v.x.x.x.0.5.;.@.S e = X     . . + m >X",
"E yXhXwXwXtXtXsXT : 7 C +Xm a ; O m  .| Q.*X .Q  . .Q u.hXZXrXXX>X!.4 1 < Q  .V 4 $ @ w &XzXzXzXjXjXjXjXjXjXN.N.x.x.x.j.0.0.<.;.*.G t $ .         * u.",
"; C  XyXOX+XtXhXBX~ : 2 P.pXV < 6 2 V C N K m H /. Xu. .K t.I.2X).%X] > 4 r } ^ ; $ $ U $XvX$XzXlXlXjXjXjXjXv.x.x.x.x.j.q.0.1.;.;.@.h = X . . .   + V ",
"; o m X.+XY.OXgXBXCX~ 2 v VX,Xm a * v Q v 4 V C w.T.I.u.m _ ).).%Xa.t.B 1 4 c u.$ $ w &X$X$XzXlXlXjXjXjXjXjXN.x.x.x.x.j.q.q.0.-.-.*.G > o +   . . + v ",
", : n C ! OX XqXBXVXCXE 5 Q VXI.v ; ; m u.P.| W./. .w. .N P E.%Xi.` 3.y.1 4 4 C * $ U x.jXjXlXlXlXlXjXx.v.jXN.N.x.x.x.j.q.0.0.:.;.*.G 9 X X + + + + ; ",
"3 , C X.C R +XsXyXSXSXCXE v } VXQ 5 : < C / w.W. X/.I._ K N p.>X~.3.4.r.I 4 4 m * % 6.$XjXlXlXjXjXjXjXN.N.N.N.v.x.j.q.q.0.0.5.:.;.*.S d @ X + . + + > ",
"v 5 Y.wXR X.E 0XNXMXCXVXBXW c L.BXC c < 5 Q w._ } w. .( m r ' ).%X^.r.r.p.s s a $ = z.$XN.lXlXlXjXjXjXv.x.x.x.j.x.0.6.0.0.6.;.;.*.@.S G $ X + + + . O ",
"v {.yXL.0X+X+XE 7XMXhXZXCXBXJ c hX,Xa < 3 c } | w.I.J W m s 7.2X~.` g.4.y.` s s @ d z.$XjXv.v.x.v.x.j.j.q.q.<.@.S h u e e 9 9 e g y S S d X . . + . + ",
"Y.0X0Xw.+XE  XhX{ oXBXyXVXVXnXs c BXL.6 3 a E I.w. . .C m J Q >X(.P 3.r.r.i.M s $ d z.v.x.h.z.6.=.;.0.q.0.-.+.0 9 # % # - 9 t t q 0 e h G $ . . + + + ",
"0XwX*XT.W., : ~ 0XL.A.BXhXCXVXhXv C VX_ 3 : n _  .I._.I.e. .BX>X).y.Y r.y.3.t.> $ d $Xz.S e 9 # # q j -.1.:.@.e e e e d A A S S h g e u G t X .   + + ",
"fXtXo.+XP./ 8 & 5 0X+X} hXnXBXVXyXv  .CXn 2 6 ! w.u.u.I.p./.AX2X!.t.4.Y r.r.i.r = A 5.j q 9 = 9 0 y j <.x.0.=.g g e 9 e A U A d h j j j G A @   . + + ",
"fX0XG.OXH v R 7 ~ C v .X} hXnXBXCXwXa /.pXa : a ! P.P.w.u.u.VXiX).a.y.Y y.r.y.D @ A S e S S A A y y j 1.N.k.-.j e e e 9 # % - 9 q g @.j G G > o   + + ",
"gX*Xw. Xx p 5 v  X2 ; 2 L.H rXnXBXVX,Xc aXu.p < K  .u././.I.K ).t.3.y.r.Y y.y.Y @ S S %.;.@.S A g y g q.jXj.#.+.j e e h # # 9 # 0 j O.+.@.G t X .   o ",
"fXJ.Y.L.3 3 v n P.C p c C 3 C .XBXBXCXXXn BXC , p  . .u.u._ J I.p.P r.y.) g.t.3.$ U ,.@.S g 9 % # i +.N.N.0.&.@.S @.G G u q e u k $.;.=.$.S e X X X o ",
"tX{  XH 3 a c W ! Z C  X; C p W I.BXBXVX.XV BXv ; m u.u.u.u._ p.p.J ) g.r.r.r.g.d *.>.k y e q 9 y j -.v.k.0.<.&.+.=.;.=.#.#.#.=.;.:.0.;.=.S d X X > d ",
"0X{ .Xp v C 5 L.Z 5 5 G.v W.C *XK w.hXhXCXu.| ,X2 , !  .u.} (.VXp.^ P r.g.] y.g.A U 5.$.j g g l @.;.x.N.j.<.2.-.=.-.0.0.5.0.0.0.<.<.<.;.=.S h @ $ d u ",
"P.P.P.p n C 5 P.p 5 H { W eXXXw./ | W aXBXVX .X.! < c K Q I.} ,XE.t.Y ` s.' y.y.U U z.k.1.-.=.;.:.j.N.N.k.2.&.-.=.<.0.0.j.j.q.j.0.1.0.;.=.S h % 9 G l ",
"{ {./ n v p C Q 5 n { | .X0XhX|.E L., / XXhXhXL.hXC 3 ! u.( n I E.y.' Y y.p.' a.) U z.x.k.k.k.x.v.N.N.x.q.&.O.#.&.-.q.j.j.q.j.q.0.1.<.-.$.j e % e @.#.",
"{ {.C n 5 < _ a 3 W G.{ +XyXeXW.XX| P.! C P.XXCXL.aX4 c I.u.P nXp.r.r.) r.s.e.y.3.,.v.N.B.B.B.N.v.N.kXV.<.O.O.O.&.<.x.v.j.1.j.-.<.1.-.=.@.h e # y @.-.",
"X.P.n a 3 2 w., c n w./ eXpXQ..X X/ XXX./.E /.hXCX .rX3 ( I.u.P p.y.y.y.3.p.a.y.r.*.x.v.B.V.B.jXjXx.jXx.0.&.&.#.O.0.x.j.x.q.0.-.<.<.=.=.+.h e # +.$.-.",
"{.! n a < m V 4 b L C X.+XhXY.|.W.} *XeXXX| / ! hXhXw._ p e.e._.!.a.a.s.) g.p.' r.6.h.k.V.B.B.B.k.j.q.-.=.&.=.-.$.-.k.x.x.k.q.<.2.:.-.+.k g 0 0 $.&.-.",
".XE p 3 6  .r r r Q a I.,XrXQ.P.{ w.=XpXQ.u.L.L.P..XhX*Xn N u.e._.i.p.~.3.y.s.' g.g.z.x.V.B.B.V.q.O.j +.y 0 0 g +.-.j.x.k.k.j.0.<.-.=.@.k g 0 g @.#.$.",
"P.C a < 6  .; c r Q a /.eXXXW P.E Q.=XpXL.W.,XXXT.L.wXBX*XN } a.=Xa.p.~.i.y.p.' s.d.z.x.v.B.B.V.q.g 0 j y y y h g =.0.x.x.x.q.<.&.#.$.$.S g 9 S *.=.*.",
"X.a v 2 m Q 4 s D s J .XfXH e.P.W W.*X=XL.W.eX X+X.XXXyXbXrXI.} =Xp.!.!.y.3.a.y.g.d.z.x.x.v.B.N.x.-.j @.S =.@.S $.0.h.j.j.j.0.<.2.&.$.@.k g 9 ,.6.,.*.",
"n < 3 , K a s 4 ^ 1  . X,Xn R G.| W.eXW.P.W..XT.,Xu.hXyXbXhXQ./ =Xp.E.(.!.!.s.y.y.d.c.z.x.x.v.N.jX0.$.=.=.@.h l @.5.;.;.;.0.<.-.&.+.@.@.k h 9 U 4.U U ",
"N H M B e.p s s ^ s E.,XT.3 G.C w..X*XW.w..XT. X.XW.fXeXrXaXBXbXpX2Xa.s.p.p.i.g.r.d.c.z.j.h.h.h.h.@.y h %.G e e u S S j +.;.0.=.&.#.$.+.S e X $ F F F ",
"s B s N ' N N P D Q !.rX} E X.! w..XW.w.w..Xu..XI.*X.XrXrX*XpXXXN s.Y %X^.p.!.~.r.d.c.z.h.<.$.k k y q u S G e e q y e 0 0 y =.=.#.O.+.k l e @ $ D D K ",
"H H P ] I N N ` B  ./.,XC W  ._ I.=XW.w.L.+XI.+XI..X*X*X,X,XW._ w 4.t ~.~.p.~.s.y.r.f.z.h.&.g 0 e i e j @.@.u q 0 0 0 0 0 0 @.-.+.+.+.S h w X o D K L ",
"A P ) s.3.3.]  .P e..X XW | W } u.=X| X.W.W.T. X_.>XrXrXrXwXT.F t 5.t &X#Xa.!.s.y.r.g.r.h.<.O.y g +.@.=.:.;.5.;.$.#.$.$.+.+.#.;.O.+.@.S d w @ > I P J ",
"E.~.~.~.E.E.!._.E.W.1XXX=X=X=X).=X*XT.Y..X XXX.X,XaXaXpXaXpXwXE.9.G e z.#Xs.~.s.g.g.r.U 5.1.&.&.h.x.j.h.x.x.x.j.:.:.:.:.-.-.=.$.k +.%.l t t = 1 I P J ",
".X.X+X.X,XXX*XXX,XrXiX2X5X2X3X3XaXXX.X X.X X+X_.>X2XpXpXrXhXfXR.G G h &X#Xs.s.s.p.s.r.f >.:.:.k.k.k.1.$.$.=.=.=.;.-.1.1.-.-.=.@.k +.S e 9 e d r I P K ",
">X>X>X_.XX.X*XXX*XrXrX1X1X5XcXnXaX.X*XwX0X+X,X=X1X5X2XpXaXpX.X(.0.@.U 3X~.!.(.p.p.s.r.f ,.>.:.k.k.k.2.O.j j j @.=.-.<.<.-.-.&.@.k S l 9 9 h d w I P P ",
";X;X;Xc.#X).=X*XtXdX0XOX0X|.0X*X,XW. X0X*X,XXX,X5X2XaXaXpXhX,X8.9.S &X<XXX!.I.!.E.s.` A 4.6.>.h.h.k.1.&.O.j j =.0.1.<.-.-.-.&.O.S S e 9 e A d = I P Q ",
"C.xXxXxX-X>XXX*XtXdX6X7X6X6X0XeX+X X.X0X*X*X.X2X>XaXaX5X1XhX+XE.4.4.E.(.>X.X/.!.!.!.^ J r.r.5.h.0.k.k.0.=.+.=.q.0.0.1.:.-.&.$.k k h 9 9 l S d = d N Q ",
"xXxX:X3X>X>X+X0XqXqXOXuX X,X,XpX*XXX+X+XOX.X.X2XbXaXaXaX!.XX+XpX%Xp.u.pX*X/.,Xu.(.).P I y.r.6.h.1.k.k.k.<.$.<.j.1.0.0.<.&.$.+.k h e q g S *.h 9 = s W ",
"-Xc.#X^.).XX+X0XfX0X0X+X*X>XrXrXrXeXyXwX,XXXiXaXaX4X2X_.I.rXW.w. . .e.Q..X.XrXI.(.%XL P s.r.3.5.0.0.0.j.;.@.;.;.0.:.:.;.$.+.k g g q e S *.*.A t 1 c } ",
").~.)..X+X+XwXuXsX0X0X+X0XwXpXeX*X*X+X@X%X5X4X4X4X-X!.Q.,XT.L. . . .u.w.I.XX,X_.).).I P E.t.r.3.*.*.*.*.*.S %.%.S %.*.S l l y e e e j %.;.*.S f d V { ",
".X X X X+XOXwXuXyX0X0X7XwXeXtX*X.X.X%XrXiX3X3X:X-Xf.!.pX.Xw.L.X._ ' I.p.W..XXX/..XQ.K _ I.t.t.s.A f h h h h h h h h h d t 9 9 e g l @.=.;.%.S l b Q o.",
"+X.X XOX+X+XwXyXtXwXwXwXwXwXwX+X.X,XiXaX4X4X:X;Xf.^.>XpXP.w.o.| _  .I.u. .W._.=X,Xp.P t.u.t. .!.Y s w w w 9 9 t w w = $ @ % 9 h G %.;.>.,.$.S l b ^ Z.",
".X.X.X+X+XwXeXyXeXtXtXwX0XwXwXwX1XaXaX4X4X4X:X-Xp.!.eX/.w.w._ _ m V W _ K .X_.,X,X' I I.t.u.7.%X(.M = = @ $ % $ % $ X X $ 9 h S *.;.>.>.>.*.S h D } L.",
"|.OX X*X+XeXeXrXwXeX*X*XwXeXyXyXaX4X4X:X;X:X-Xs.W./.*XP.| } X._ Q Q C C n /..X*XwXQ / XXu.t.t.rXiXQ 1 * @ $ o X X @ @ > d h U ,.6.>.:.:.:.>.U A ^ 8.L.",
"{.OX X+X+X0X0XeX*X=X.X+XeXhXaXaXaX4X:X:X;X-X^.E. XgX|.G.| / u._ _ _ _ J K T.,X*XwXW } .Xu. .E.cXiX^ b b w $ @ $ = w t d A S *.6.5.:.:.:.>.,.U L ` L.H.",
"|.{.OX|.+X0XtXqX*XwX*XeXiXaXaXaX4X:X:X;X-Xf.!./. XhXY...| /  ._  .u.w.! Q  .*X*XT.W  .I.u.I.rXhX(.F b U U 9 9 e d A S l S *.>.5.5.5.5.5.5.,.4.)  .G.G.",
"W.W.|.`.OX0XtXqX0XyXrXaXaXaX3X4X;X;X;Xb.f.s.I.T.OX'.Z...} Q ` _ Q  . .w.w.T.rXwXW.w.+X X XyXnX%X` M r U d.U U S S l S k %.,.:.h.5.:.5.5.6.4.4.` u.G.H.",
"..Y.J.J.H.Y.6X6X0XpXaX1X4X4X;X;X;X;X-Xs.R. .P.+XOXJ.G.} / Q Q ( ! ! u. .| P.fXOXtXfX0XeXhXBXhXE.L b t w d.6.*.%.+.S k +.$.:.1.1.h.:.5.5.6.4.) 7.L.L.H.",
"G.......Z.H.'.OXwXyX2X5X4X:X;Xn.b.-X#X7.P.Y.'.NX XX.| { _ | ` Q Q / P.+XwXyXhX XsXhXsXfXMXhXsXL.D b = - 9.6.,.$.%.%.%.$.>.:.1.0.5.5.5.5.6.4.` u.L.L.H.",
"{ w...X.L.'.eXfXpX2XaX3X4X;Xn.n.b.c.a.o.A.[.U.fXY./ _ _ _ / } _ _ T.eXhXNXhXyXT.sXMXhXMXBXhXuXX.V s @ @ U 6.6.,.%.%.*.,.:.5.5.:.5.M.6.6.6.^ 8.F.L.H.H.",
"o.J.X.Y.+XwXpXrX5XaX3XcX-Xb.n.b.#Xy.X.A.H.`.}.|.w./ / ! / ! / | X.eXhXhXhXhXsX{.sXMXMXBXNXsX+XX.D ; $ @ A 6.6.,.*.*.,.>.6.5.5.5.5.6.6.6.3.` 8.F.U.H.H.",
"Y.G./..XrXiX2X4X3X-X4X-X;X;Xb.c.i. .X.G.J.7XOXJ._ _ Q Q | _ / ..OXhXgXsXgXgXsXoXsXMXMXMXhXyXoXX.M $ $ $ S 6.5.>.>.,.>.>.5.5.5.5.6.,.6.9.^ | L.U.U.K.K.",
"Y.wX XrX1X^.4X4X;X:Xc.;X-X-Xc.y. .X.G.Z.|.hXY.../ _ Q } u.W }  XhXMXfXsXfXtXuX}.sXMXMXMXhXyXOXF.r $ @ 9 6.>.5.:.>.>.>.:.5.5.6.>.>.,.6.4.^ X.U.`.`.`.`.",
"uX7XwXXX>X4X-X;X;Xn.n.c.-X#Xy.' o.Z...G.bXhXJ...} ! _  . .E P.hXgXgXsXsXsXuXdX}.sXMXMXMXgXyXoX8.> = 9 l z.:.:.1.:.:.:.:.h.5.:.>.>.6.4.F  .A.U.`.`.`.`.",
"eXwX).2X4X:X:X:Xn.n.c.b.#Xs.' } ..Z.{ P.VXQ.w.} _ _ _ _ ! } tXNXgXsXdXuXdXtXsXU.gXMXNXMXgXtX{.| 1 w G z.v.z.h.k.M.M.1.h.h.h.5.6.6.d.U b R.U.'.[.`.`.`.",
"%Xf.3X-X-X:Xn.;Xn.m.n.b.s. .} ..Z.{ Z.OX+Xw.} ! W /  .w.E OXMXhXgXtXtXdXdX0X7X'.gXNXgXMXdXoX'.C r A z.3XzXjXj.v.j.x.z.z.v.h.:.z.7.R.i.L.'.L.`.].`.[.[.",
"^.4X:X-X:X;Xc.n.l.b.b.r.e.} { Z.....Z.'.{.| / ! ! ! | ! X.MXgXgXgXsXdXqXqX0XqX'.gXgXhXsXuX6X}.v b 9.3XcXvXxXv.lXlX$X$X$Xv.x.v.z.&XL.P.T.`.oX'.`.}.'.`.",
"-X:X;X:X;Xb.n.m.b.;X^.' } | { G.A.H.H.Y.P.| ! W ! W W C wXhXgXgXdXsXfXuXuXuXdXoXtX`.8XtXsXMXdX! F d.cXvXvXxXlXlXjXzX;X3X3X$X&XE.E.'.C Z T ..`.'.`.[.K.",
";X-X;Xc.n.n.l.n.;Xc.a.} X...| J.H.{.`.Y.G.| ! W W E H } hXtXfXsXuXqXuXqX0X7XtX7XH.z 7 v ~ sXsX+X^ &XcXvXvXxXlXlXjXzX3X3X3X%X#X%XT.} 7 6 v 7 7 z T { [.",
";X:Xc.n.m.l.n.b.c.y. .o.Z.Z.w.Q.`.{.`.H...| W E W H ~ wXhXfX0XuXdXqX0XOXoX}.qX6X7X{ Z x T tX8XL. .~.iXcXcXxXzXzXzX$XzX3X%X(.| C v v E { [ T T H.Z.[ T ",
"lXl.lXn.l.m.n.b.g. .X.A.Z.G.Y.|.sXOX`.J...{ W E W W { fXgXgXsX7XqXqXqXoX}.}.7X}.'.}.'.[ ..}.`.L. X<XiXcXcXzXzXzXlX3X3X7.C v 6 6 6 Z o.[ Z.H.[.].`.].].",
"v.n.m.m.m.n.b.f.' | Z.H.H.H.|.tXCXqX`.G.{ ~ W E E | W.fXgXqXgXqX7X8X8X}.'.'.OX'.oX7X8XZ.{ [ `.0XyXhXaXcXcXcXzXzXzX3Xi.^ { T x x C Z.{ ..A.S.`.}.].].].",
"n.C.l.l.l.l.f.] | o.Z.Y.}.{.0XNXSX0XH.{ ~ R ~ W W L.hXNXgXuX}.sXdX6XoX}.'.U.OX8XuXqX}.`...~ { H.sXfXiXiXiXcXcX3X3X(. .L.A.R R R Z.A.Z.A.Z.H.].'.].].`.",
"n.l.l.m.m.b.] _ ..{ ....J.`.dXSXNXoXJ.{ { R W E R o.yXMXfXgXdX6X7XqXoX`.[.}.'.7XsX8X'.'.[.A.{ [ C U.OXwX<XaXiXiX<XR.X.L.[ ~ [ A.Z.J.A.S.H.].].`.].].].",
"l.n.m.b.:XY t.| ....G...G.}.NXSXqXJ...{ / ~ R E ~ Y.tXfXgXgXgXdX'.8X8X`.A.}.7XqXqXoX'.}.}.H.H.`.o.Z [ '.+X%XrXrX+X/.X.~ { o.S.A.H.H.H.U.`.].].].`.'.].",
"m.m.n.;X4.'  .w.e.G.J.Z.H.}.BXMX}.G...! W ~ R / o.yXfXtXfXgXgXdXsXoX'.].U.].oX8X8X'.`.}.oXU.H.8X].A.[ Z A.+X.X+X{.G.[ ~ Z.A.U.U.H.H.[.].}.].].].].].}.",
"m.m.b.g.] X. .w.e.e.G.J.`.`.gX6XY.e.{ ~ E ~ | W.+XhXNXgXfXdXsXgXsXqX8X`.A.].7XoX}.'.`.'.}.H.H.8X7XD.`.Z.Z C Z.OXG.~ ~ H.A.U.U.A.A.H.`.}.oX].'.].oX}.}.",
"m.f.f.] | o.......e...J.`.}.6X|.G.../ ~ ! E W.*XhXyXtXsXsXtXqXgXdXdX7XU.A.`.8X}.'.'.[.`.}.`.U.}.8X8X].[.U.U.L.Z.[ [ Z.[.A.U.U.{ S.`.oX8X}.'.].}.}.'.`.",
"f.-XP _ X...Z.J...J.J.G.Y.}.{.`.G...! ~ ! E *XeXyXwXgXyXOXoXoXqXdXqX8X`.H.A.`.].`.'.`.'.}.}.'.}.9X}.].`.7XOX'.[ R Z.[.H.`.H.A.Z.A.`.8XoX].'.}.}.}.].`.",
"-X] ] } | H.H.J.H.J.J.e.Y.{.`.G...{ W W W | fXfXfXyXyXwX0XtX7XU.[.}.8XU.{ { }.}.`.'.'.}.}.}.oX}.6X}.6X`.'.oXU.[ [ A.K.H.}.A.Z.U.U.}.8XoX'.'.}.}.oX}.{.",
"t.e.e.w.P.H.H.J.H.Z.J.G.W.J.Y...{ / ~ ! W u.aXrXrXaXrX,X+X.X%X+XT...A.A.[ [ '.'.`.`.}.oX}.oX8X7X}.}.}.}.].7Xo.[ S.H.H.[.H.J.Z.J.}.6X8XoX}.}.oXoXoXoX}.",
"| e.w.w.J.J.J.J.H.H.H.H.H.J.G.e...{ ( Q ^ #XcXvXmXvXvXnXcX3X#XE.!.X.{ Z.Z.T Y.{.'.}.9X8X8X8X8X8X}.`.`.'.}.}.Z.[ A.`.`.[.S.J.U.{.oX8X8X}.].oX8XoX}.].].",
"..e.G...G.J.J.J.K.K.H.H.J.G.e.....{ ! J 3.3XmXvXvXmXmXvXcXcX3X&Xa. .[ [ [ Z H.Y.].8X8X8XoXoXoXoX`.`.].U.`.[.Z.A.`.}.`.[.A.H.L.'.8X8XoX].`.'.}.}.'.'.].",
"G.G.G.G.J.J.K.Y.`.Y.H.J.G.e...{ { ~ ! ` %XvXmXvXvXmXvXcXcXcX3X#Xy.} [ [ R v Z.Y.8X7X7X8X8X8X8X8X'.}.oXA.`.A.S.`.}.}.`.`.U.`.`.}.8X8XoX}.'.'.'.'.'.'.].",
"G.J.H.H.H.K.`.`.`.`.Y.J.G...| { { W ! ~.cXvXvXmXmXvXvXcXcX3X$X#Xs./ ~ [ ~ z { `.8XdXdX8X8X7X7X8X8X8XoX..`.H.A.].}.].[.`.`.'.'.8XoX}.oX8XoX].].].'.'.'."
};
