/* XPM */
static char *result[] = {
/* columns rows colors chars-per-pixel */
"70 70 142 2 ",
"   c #AC7B00",
".  c #AD7B00",
"X  c #AB7C00",
"o  c #AB7D00",
"O  c #AC7C00",
"+  c #AC7D00",
"@  c #AC7C01",
"#  c #AF7E00",
"$  c #B07F00",
"%  c #AF810A",
"&  c #B2830A",
"*  c #B0820C",
"=  c #B28613",
"-  c #B78A11",
";  c #B88A11",
":  c #BA8D16",
">  c #BC8F19",
",  c #BD911B",
"<  c #BD911C",
"1  c #BE911C",
"2  c #BE921D",
"3  c #BF921D",
"4  c #BB942F",
"5  c #BD9734",
"6  c #BD9735",
"7  c #BF9A3B",
"8  c #C89200",
"9  c #CA9400",
"0  c #D59D00",
"q  c #D89F00",
"w  c #DCA200",
"e  c #E3A700",
"r  c #E4A800",
"t  c #E7AA00",
"y  c #E8AC00",
"u  c #F1B200",
"i  c #F8B800",
"p  c #F8B801",
"a  c #F8B802",
"s  c #F8B902",
"d  c #F8B903",
"f  c #F8B905",
"g  c #F8BA06",
"h  c #F8BA07",
"j  c #F8BB0A",
"k  c #E9B114",
"l  c #F8BD14",
"z  c #F8BE15",
"x  c #C49826",
"c  c #C59B28",
"v  c #CAA02F",
"b  c #CCA333",
"n  c #CEA535",
"m  c #CEA636",
"M  c #CFA636",
"N  c #D6AC39",
"B  c #E6BA3D",
"V  c #E9BC3D",
"C  c #F8C225",
"Z  c #F8C328",
"A  c #F8C42C",
"S  c #F8C52F",
"D  c #F8C633",
"F  c #F8C736",
"G  c #F8C83A",
"H  c #F8C83E",
"J  c #D5AD40",
"K  c #D8B145",
"L  c #DAB449",
"P  c #DCB64C",
"I  c #CFB46C",
"U  c #D0B46D",
"Y  c #D2B770",
"T  c #D2B774",
"R  c #D2B875",
"E  c #F8C941",
"W  c #F8C942",
"Q  c #F8CA45",
"!  c #F8CC4C",
"~  c #E7C45D",
"^  c #F8CD50",
"/  c #F8CE53",
"(  c #F8CF56",
")  c #F8D059",
"_  c #F8D15F",
"`  c #F8D261",
"'  c #F8D262",
"]  c #F8D366",
"[  c #F8D367",
"{  c #F8D467",
"}  c #F8D56E",
"|  c #F4D371",
" . c #F4D372",
".. c #F4D472",
"X. c #F6D575",
"o. c #F8D877",
"O. c #F8D878",
"+. c #F8D879",
"@. c #F8D87A",
"#. c #F8D97A",
"$. c #F8D97B",
"%. c #F8D97C",
"&. c #DBC383",
"*. c #D9C48B",
"=. c #DAC58D",
"-. c #DCC894",
";. c #EAD391",
":. c #F9DF91",
">. c #FAE29D",
",. c #FAE39E",
"<. c #E0CFA1",
"1. c #E1CFA2",
"2. c #FBE7AC",
"3. c #FBE7AD",
"4. c #F7E6B2",
"5. c #FBE9B1",
"6. c #FBEAB5",
"7. c #FBEBB9",
"8. c #FCECBE",
"9. c #EEE4CB",
"0. c #FCEDC2",
"q. c #FCEEC4",
"w. c #FCF0CA",
"e. c #FDF3D5",
"r. c #FDF4D9",
"t. c #FDF5DD",
"y. c #F7F3E7",
"u. c #FDF7E3",
"i. c #FEF7E3",
"p. c #FEFAEC",
"a. c #FEFAED",
"s. c #FEFAEF",
"d. c #FAF7F0",
"f. c #FBF8F2",
"g. c #FBF9F3",
"h. c #FCFAF5",
"j. c #FDFBF8",
"k. c #FFFEFC",
"l. c #FFFEFE",
"z. c #FFFFFE",
"x. c white",
"c. c None",
/* pixels */
"c.c.c.c.c.c.c.c.c.c.c.c.c.c.c.c.c.c.c.c.c.c.c.c.c.c.c.c.c.c.c.c.c.c.c.c.c.c.c.c.c.c.c.c.c.c.c.c.c.c.c.c.c.c.c.c.c.c.c.c.c.c.c.c.c.c.c.c.c.c.",
"c.c.c.c.c.c.c.c.c.c.c.c.c.c.c.c.c.c.c.c.c.c.c.c.c.c.c.c.c.c.c.c.c.c.c.c.c.c.c.c.c.c.c.c.c.c.c.c.c.c.c.c.c.c.c.c.c.c.c.c.c.c.c.c.c.c.c.c.c.c.",
"c.c.c.c.c.c.c.c.c.c.c.c.c.c.c.c.c.c.c.c.c.c.c.c.c.c.c.c.c.c.c.c.c.c.c.c.c.c.c.c.c.c.c.c.c.c.c.c.c.c.c.c.c.c.c.c.c.c.c.c.c.c.c.c.c.c.c.c.c.c.",
"c.c.c.c.c.c.c.c.c.c.c.c.c.c.c.c.c.c.c.c.c.c.c.c.c.c.c.c.c.c.c.c.c.c.c.c.c.c.c.c.c.c.c.c.c.c.c.c.c.c.c.c.c.c.c.c.c.c.c.c.c.c.c.c.c.c.c.c.c.c.",
"c.c.c.c.c.c.c.c.c.c.c.c.c.c.c.c.c.c.c.c.c.c.c.c.c.c.c.c.c.c.c.c.c.c.c.c.c.c.c.c.c.c.c.c.c.c.c.c.c.c.c.c.c.c.c.c.c.c.c.c.c.c.c.c.c.c.c.c.c.c.",
"c.c.c.c.c.c.c.c.c.c.c.c.c.c.c.c.c.c.c.c.c.c.c.c.c.c.c.c.c.c.c.c.c.c.c.c.c.c.c.c.c.c.c.c.c.c.c.c.c.c.c.c.c.c.c.c.c.c.c.c.c.c.c.c.c.c.c.c.c.c.",
"c.c.c.c.c.c.c.c.c.c.c.c.c.c.c.c.c.c.c.c.c.c.c.c.c.c.c.c.c.c.c.c.c.c.c.c.c.c.c.c.c.c.c.c.c.c.c.c.c.c.c.c.c.c.c.c.c.c.c.c.c.c.c.c.c.c.c.c.c.c.",
"c.c.c.c.c.c.c.c.c.c.c.c.c.c.c.c.c.c.c.c.c.c.c.c.c.c.c.c.+ + + + + + + + + + + + + + + + + c.c.c.c.c.c.c.c.c.c.c.c.c.c.c.c.c.c.c.c.c.c.c.c.c.",
"c.c.c.c.c.c.c.c.c.c.c.c.c.c.c.c.c.c.c.c.c.c.c.c.c.c.c.c.O O O O O O O O O O O O O O O O O c.c.c.c.c.c.c.c.c.c.c.c.c.c.c.c.c.c.c.c.c.c.c.c.c.",
"c.c.c.c.c.c.c.c.c.c.c.c.c.c.c.c.c.c.c.c.c.c.c.c.c.c.c.c.O O O O O O O O O O O O O O O O O c.c.c.c.c.c.c.c.c.c.c.c.c.c.c.c.c.c.c.c.c.c.c.c.c.",
"c.c.c.c.c.c.c.c.c.c.c.c.c.c.c.c.c.c.c.c.c.c.c.O O O O M O.O.O.O.O.O.O.O.O.O.O.O.O.O.M O O O O O O O c.c.c.c.c.c.c.c.c.c.c.c.c.c.c.c.c.c.c.c.",
"c.c.c.c.c.c.c.c.c.c.c.c.c.c.c.c.c.c.c.c.c.c.c.O O O O m O.O.O.O.O.O.O.O.O.O.O.O.O.O.m O O O O O O O c.c.c.c.c.c.c.c.c.c.c.c.c.c.c.c.c.c.c.c.",
"c.c.c.c.c.c.c.c.c.c.c.c.c.c.c.c.c.c.c.c.X   c K K K K B D D D D D D D D D D D D D D B K K K K 3 O O     c.c.c.c.c.c.c.c.c.c.c.c.c.c.c.c.c.c.",
"c.c.c.c.c.c.c.c.c.c.c.c.c.c.c.c.c.c.c.c.O O b O.O.O.O.W i i i i i i i i i i i i i i W O.O.O.O.b O O O O c.c.c.c.c.c.c.c.c.c.c.c.c.c.c.c.c.c.",
"c.c.c.c.c.c.c.c.c.c.c.c.c.c.c.c.c.c.c.c.O O b O.O.O.O.E i i i i i i i i i i i i i i E O.O.O.O.b O O O O c.c.c.c.c.c.c.c.c.c.c.c.c.c.c.c.c.c.",
"c.c.c.c.c.c.c.c.c.c.c.c.c.c.c.c.c.c.O O O.O.O.O.O.i i i i i O O O O O O O O O O i i i i i O.O.O.O.O.O O O O O c.c.c.c.c.c.c.c.c.c.c.c.c.c.c.",
"c.c.c.c.c.c.c.c.c.c.c.c.c.c.c.c.c.c.O O O.O.O.O.O.i i i i i O O O O O O O O O O i i i i i O.O.O.O.O.O O O O O c.c.c.c.c.c.c.c.c.c.c.c.c.c.c.",
"c.c.c.c.c.c.c.c.c.c.c.c.c.c.c.O . x L L O.O.) S S i i e 9 9 L L L L L L L L L L 9 9 e i i S S ) O.O.L L 2 O O . . c.c.c.c.c.c.c.c.c.c.c.c.c.",
"c.c.c.c.c.c.c.c.c.c.c.c.c.c.c.O O v O.O.O.O.Q i i i i 0 O O O.O.O.O.O.O.O.O.O.O.O O 0 i i i i Q O.O.O.O.v O O O O c.c.c.c.c.c.c.c.c.c.c.c.c.",
"c.c.c.c.c.c.c.c.c.c.c.c.c.c.c.O O v O.O.o.o.Q i i i i 0 @ @ o.o.O.O.O.O.O.O.o.o.@ @ 0 i i i i Q o.o.O.O.v O O O O c.c.c.c.c.c.c.c.c.c.c.c.c.",
"c.c.c.c.c.c.c.c.c.c.c.c.c.c.c.O O v O.O.i i i i i O O M O.O.i i G O.O.O.O.G i i O.O.M O O i i i i i O.O.v O O O O c.c.c.c.c.c.c.c.c.c.c.c.c.",
"c.c.c.c.c.c.c.c.c.c.c.c.c.c.c.O O v O.O.i i i i i O O M O.O.i i G O.O.O.O.G i i O.O.M O O i i i i i O.O.v O O O O c.c.c.c.c.c.c.c.c.c.c.c.c.",
"c.c.c.c.c.c.c.c.c.c.c.c.c.O O <.1.;.O.O.i i r 8 8 P P V A A i i z A A O.O.` ! ! A A k w w 8 8 r i i O.O.~ P P O O O O O c.c.c.c.c.c.c.c.c.c.",
"c.c.c.c.c.c.c.c.c.c.c.c.c.O O l.x.w.O.O.i i q O O O.O.W i i i i i i i O.O.O.O.O.i i i i i O O q i i O.O.O.O.o.O O O O O c.c.c.c.c.c.c.c.c.c.",
"c.c.c.c.c.c.c.c.c.c.c.c.c.O O l.x.w.+.+.i i q O O O.O.W i i i i i i i o.o.O.O.O.p p i i i O O q i i O.O.O.O.o.O O O O O c.c.c.c.c.c.c.c.c.c.",
"c.c.c.c.c.c.c.c.c.c.c.c.c.O O l.x.x.x.x.p i q O O O.O.W i i i i i i i i i H O.O.O.O.F i i O O q i i O.O.O.O.o.O O O O O c.c.c.c.c.c.c.c.c.c.",
"c.c.c.c.c.c.c.c.c.c.c.c.c.O O l.x.x.x.x.p i q O O O.O.W i i i i i i i i i H O.O.O.O.F i i O O q i i O.O.O.O.o.O O O O O c.c.c.c.c.c.c.c.c.c.",
"c.c.c.c.c.c.c.c.c.c.c.c.c.O O l.x.x.x.x.p i q O O O.O.] ^ ^ i i i i i i i z Z Z O.O.' ^ ^ O O q i i O.O.O.O.o.O O O O O c.c.c.c.c.c.c.c.c.c.",
"c.c.c.c.c.c.c.c.c.c.c.c.c.O O l.x.x.x.x.p i q O O O.O.O.O.O.i i i i i i i i i i O.O.O.O.O.O O q i i O.O.O.O.o.O O O O O c.c.c.c.c.c.c.c.c.c.",
"c.c.c.c.c.c.c.c.c.c.c.c.c.O O l.x.x.x.x.p i q O O +.@.+.O.O.a p p i i i i i i i o.o.o.O.O.O O q i i O.O.O.O.o.O O O O O c.c.c.c.c.c.c.c.c.c.",
"c.c.c.c.c.c.c.c.c.c.c.c.c.O O l.x.x.x.x.p i q O O x.x.0.O.O.O.O.H i i i i i i i i i W O.O.O O q i i O.O.O.O.o.O O O O O c.c.c.c.c.c.c.c.c.c.",
"c.c.c.c.c.c.c.c.c.c.c.c.c.O O l.x.x.x.x.p i q O O x.x.0.O.O.O.O.H i i i i i i i i i W O.O.O O q i i O.O.O.O.o.O O O O O c.c.c.c.c.c.c.c.c.c.",
"c.c.c.c.c.c.c.c.c.c.c.c.c.O O l.x.x.x.x.p i q O O x.x.p.e.e.O.O.] / / i i i i i i i l C C O O q i i O.O.O.O.o.O O O O O c.c.c.c.c.c.c.c.c.c.",
"c.c.c.c.c.c.c.c.c.c.c.c.c.O O l.x.x.x.x.p i q O O x.x.x.x.x.O.O.O.O.O.i i i i i i i i i i O O q i i O.O.O.O.o.O O O O O c.c.c.c.c.c.c.c.c.c.",
"c.c.c.c.c.c.c.c.c.c.c.c.c.O O l.x.x.x.x.p i q O O x.x.x.x.x.#.#.+.O.O.s s p i i i i i i i O O q i i O.O.O.O.o.O O O O O c.c.c.c.c.c.c.c.c.c.",
"c.c.c.c.c.c.c.c.c.c.c.c.c.O O l.x.x.x.x.p i q O O x.x.x.x.x.x.x.8.O.O.O.O.G i i i i i i i O O q i i O.O.O.O.o.O O O O O c.c.c.c.c.c.c.c.c.c.",
"c.c.c.c.c.c.c.c.c.c.c.c.c.O O l.x.x.x.x.p i q O O x.x.x.x.x.x.x.8.O.O.O.O.G i i i i i i i O O q i i O.O.O.O.o.O O O O O c.c.c.c.c.c.c.c.c.c.",
"c.c.c.c.c.c.c.c.c.c.c.c.c.O O >.,.q.x.x.p i q O O x.x.x.x.x.x.x.a.r.r.O.O.[ ( ( i i i i i O O q i i O.O.O.O.o.O O O O O c.c.c.c.c.c.c.c.c.c.",
"c.c.c.c.c.c.c.c.c.c.c.c.c.O O o.O.3.x.x.p i q O O x.x.x.x.x.x.x.x.x.x.O.O.O.O.O.i i i i i O O q i i O.O.O.O.o.O O O O O c.c.c.c.c.c.c.c.c.c.",
"c.c.c.c.c.c.c.c.c.c.c.c.c.O O o.O.2.k.k.p i q O O x.x.x.x.x.x.x.x.x.x.$.$.+.O.O.d d p i i O O q i i O.O.O.O.o.O O O O O c.c.c.c.c.c.c.c.c.c.",
"c.c.c.c.c.c.c.c.c.c.c.c.c.O O o.O.O.O.O.i i q O O x.x.x.x.x.x.x.x.x.x.x.x.7.O.O.O.O.F i i O O q i i O.O.O.O.o.O O O O O c.c.c.c.c.c.c.c.c.c.",
"c.c.c.c.c.c.c.c.c.c.c.c.c.O O o.O.O.O.O.i i q O O x.x.x.x.x.x.x.x.x.x.x.x.7.O.O.O.O.F i i O O q i i O.O.O.O.o.O O O O O c.c.c.c.c.c.c.c.c.c.",
"c.c.c.c.c.c.c.c.c.c.c.c.c.O O o.O.O.O.O.i i q O O x.x.x.x.x.x.x.x.x.x.x.x.a.t.t.O.O.{ ) ) O O q i i O.O.O.O.o.O O O O O c.c.c.c.c.c.c.c.c.c.",
"c.c.c.c.c.c.c.c.c.c.c.c.c.O O o.O.O.O.O.i i q O O x.x.x.x.x.x.x.x.x.x.x.x.x.x.x.O.O.O.O.O.O O q i i O.O.O.O.o.O O O O O c.c.c.c.c.c.c.c.c.c.",
"c.c.c.c.c.c.c.c.c.c.c.c.c.O O o.O.O.O.O.i i q O O x.x.x.x.x.x.x.x.x.x.x.x.x.x.x.%.%.#.O.O.O O q i i O.O.O.O.o.O O O O O c.c.c.c.c.c.c.c.c.c.",
"c.c.c.c.c.c.c.c.c.c.c.c.c.O O o.O.O.O.O.i i q O O x.x.x.x.x.x.x.x.x.x.x.x.x.x.x.x.x.6.O.O.O O q i i O.O.O.O.o.O O O O O c.c.c.c.c.c.c.c.c.c.",
"c.c.c.c.c.c.c.c.c.c.c.c.c.O O o.O.O.O.O.i i q O O x.x.x.x.x.x.x.x.x.x.x.x.x.x.x.x.x.6.O.O.O O q i i O.O.O.O.o.O O O O O c.c.c.c.c.c.c.c.c.c.",
"c.c.c.c.c.c.c.c.c.c.c.c.c.c.c.< < J O.O.i i u t t 7 7 -.x.x.x.x.x.x.x.x.x.x.x.x.x.x.&.< 1 t t u i i O.O.J < , O O o c.c.c.c.c.c.c.c.c.c.c.c.",
"c.c.c.c.c.c.c.c.c.c.c.c.c.c.c.O O v O.O.i i i i i O O T x.x.x.x.x.x.x.x.x.x.x.x.x.x.T O O i i i i i O.O.v O O O O c.c.c.c.c.c.c.c.c.c.c.c.c.",
"c.c.c.c.c.c.c.c.c.c.c.c.c.c.c.O O v O.O.f f d i i # # Y h.h.x.x.x.x.x.x.x.x.x.x.h.h.R % % j j h f f O.O.v O O O O c.c.c.c.c.c.c.c.c.c.c.c.c.",
"c.c.c.c.c.c.c.c.c.c.c.c.c.c.c.O O v O.O.O.O.Q i i i i 0 O O x.x.x.x.x.x.x.x.x.x.O O *.x.x.x.x.5.O.O.O.O.v O O O O c.c.c.c.c.c.c.c.c.c.c.c.c.",
"c.c.c.c.c.c.c.c.c.c.c.c.c.c.c.O O v O.O.O.O.Q i i i i 0 O O x.x.x.x.x.x.x.x.x.x.O O *.x.x.x.x.5.O.O.O.O.v O O O O c.c.c.c.c.c.c.c.c.c.c.c.c.",
"c.c.c.c.c.c.c.c.c.c.c.c.c.c.c.c.c.; > > O.O.} _ _ i i u y y 5 5 5 5 5 5 5 5 5 6 9.9.y.x.x.x.x.s.i.u.> > & O O c.c.c.c.c.c.c.c.c.c.c.c.c.c.c.",
"c.c.c.c.c.c.c.c.c.c.c.c.c.c.c.c.c.c.O O O.O.O.O.O.i i i i i O O O O O O O O O O x.x.x.x.x.x.x.x.x.z.O O O O O c.c.c.c.c.c.c.c.c.c.c.c.c.c.c.",
"c.c.c.c.c.c.c.c.c.c.c.c.c.c.c.c.c.c.O O  ...X.O.O.g g d i i $ $ $ $ $ * * * * * x.x.x.x.x.x.x.j.g.f.O O O O O c.c.c.c.c.c.c.c.c.c.c.c.c.c.c.",
"c.c.c.c.c.c.c.c.c.c.c.c.c.c.c.c.c.c.c.c.O O b O.O.O.O.W i i i i i i i x.x.x.x.x.x.x.x.x.x.x.x.I O O O O c.c.c.c.c.c.c.c.c.c.c.c.c.c.c.c.c.c.",
"c.c.c.c.c.c.c.c.c.c.c.c.c.c.c.c.c.c.c.c.O O b O.O.O.O.W i i i i i i i x.x.x.x.x.x.x.x.x.x.x.x.I O O O O c.c.c.c.c.c.c.c.c.c.c.c.c.c.c.c.c.c.",
"c.c.c.c.c.c.c.c.c.c.c.c.c.c.c.c.c.c.c.c.c.c.- : : : : N ' ' ' ' ' ' ' :.:.w.x.x.x.x.=.4 4 4 4 = O O c.c.c.c.c.c.c.c.c.c.c.c.c.c.c.c.c.c.c.c.",
"c.c.c.c.c.c.c.c.c.c.c.c.c.c.c.c.c.c.c.c.c.c.c.O O O O m O.O.O.O.O.O.O.O.O.8.x.x.x.x.T O O O O O O O c.c.c.c.c.c.c.c.c.c.c.c.c.c.c.c.c.c.c.c.",
"c.c.c.c.c.c.c.c.c.c.c.c.c.c.c.c.c.c.c.c.c.c.c.O O O O n | | | | | | | | | 4.d.d.d.d.U O O O O O O O c.c.c.c.c.c.c.c.c.c.c.c.c.c.c.c.c.c.c.c.",
"c.c.c.c.c.c.c.c.c.c.c.c.c.c.c.c.c.c.c.c.c.c.c.c.c.c.c.c.O O O O O O O O O O O O O O O O O c.c.c.c.c.c.c.c.c.c.c.c.c.c.c.c.c.c.c.c.c.c.c.c.c.",
"c.c.c.c.c.c.c.c.c.c.c.c.c.c.c.c.c.c.c.c.c.c.c.c.c.c.c.c.O O O O O O O O O O O O O O O O O c.c.c.c.c.c.c.c.c.c.c.c.c.c.c.c.c.c.c.c.c.c.c.c.c.",
"c.c.c.c.c.c.c.c.c.c.c.c.c.c.c.c.c.c.c.c.c.c.c.c.c.c.c.c.c.c.c.c.c.c.c.c.c.c.c.c.c.c.c.c.c.c.c.c.c.c.c.c.c.c.c.c.c.c.c.c.c.c.c.c.c.c.c.c.c.c.",
"c.c.c.c.c.c.c.c.c.c.c.c.c.c.c.c.c.c.c.c.c.c.c.c.c.c.c.c.c.c.c.c.c.c.c.c.c.c.c.c.c.c.c.c.c.c.c.c.c.c.c.c.c.c.c.c.c.c.c.c.c.c.c.c.c.c.c.c.c.c.",
"c.c.c.c.c.c.c.c.c.c.c.c.c.c.c.c.c.c.c.c.c.c.c.c.c.c.c.c.c.c.c.c.c.c.c.c.c.c.c.c.c.c.c.c.c.c.c.c.c.c.c.c.c.c.c.c.c.c.c.c.c.c.c.c.c.c.c.c.c.c.",
"c.c.c.c.c.c.c.c.c.c.c.c.c.c.c.c.c.c.c.c.c.c.c.c.c.c.c.c.c.c.c.c.c.c.c.c.c.c.c.c.c.c.c.c.c.c.c.c.c.c.c.c.c.c.c.c.c.c.c.c.c.c.c.c.c.c.c.c.c.c.",
"c.c.c.c.c.c.c.c.c.c.c.c.c.c.c.c.c.c.c.c.c.c.c.c.c.c.c.c.c.c.c.c.c.c.c.c.c.c.c.c.c.c.c.c.c.c.c.c.c.c.c.c.c.c.c.c.c.c.c.c.c.c.c.c.c.c.c.c.c.c.",
"c.c.c.c.c.c.c.c.c.c.c.c.c.c.c.c.c.c.c.c.c.c.c.c.c.c.c.c.c.c.c.c.c.c.c.c.c.c.c.c.c.c.c.c.c.c.c.c.c.c.c.c.c.c.c.c.c.c.c.c.c.c.c.c.c.c.c.c.c.c.",
"c.c.c.c.c.c.c.c.c.c.c.c.c.c.c.c.c.c.c.c.c.c.c.c.c.c.c.c.c.c.c.c.c.c.c.c.c.c.c.c.c.c.c.c.c.c.c.c.c.c.c.c.c.c.c.c.c.c.c.c.c.c.c.c.c.c.c.c.c.c.",
"c.c.c.c.c.c.c.c.c.c.c.c.c.c.c.c.c.c.c.c.c.c.c.c.c.c.c.c.c.c.c.c.c.c.c.c.c.c.c.c.c.c.c.c.c.c.c.c.c.c.c.c.c.c.c.c.c.c.c.c.c.c.c.c.c.c.c.c.c.c."
};
