/* XPM */
static char *IMG_20230922_160014_802__1_1695387701[] = {
/* columns rows colors chars-per-pixel */
"70 70 197 2 ",
"   c None",
".  c #020303",
"X  c #060709",
"o  c #06080A",
"O  c #0B0B0C",
"+  c #080708",
"@  c #0C0E11",
"#  c #0E1116",
"$  c #0F1418",
"%  c #121212",
"&  c #12161A",
"*  c #15191E",
"=  c #1A1B1D",
"-  c #100F10",
";  c #21130D",
":  c #391B0D",
">  c #251A15",
",  c #241E1B",
"<  c #261C16",
"1  c #3F1F10",
"2  c #2A221E",
"3  c #29221A",
"4  c #392814",
"5  c #3E3314",
"6  c #171C22",
"7  c #1A1E24",
"8  c #1A2026",
"9  c #1D242C",
"0  c #1F2830",
"q  c #232324",
"w  c #2C2522",
"e  c #22262B",
"r  c #25292E",
"t  c #2E2B2A",
"y  c #2B2827",
"u  c #342C26",
"i  c #332D2A",
"p  c #382E28",
"a  c #382F27",
"s  c #36312E",
"d  c #3A312B",
"f  c #232B33",
"g  c #2A2D33",
"h  c #252E39",
"j  c #202730",
"k  c #26313B",
"l  c #29333D",
"z  c #2D3236",
"x  c #353230",
"c  c #393331",
"v  c #32363A",
"b  c #3A3A3B",
"n  c #34383E",
"m  c #452312",
"M  c #4B2614",
"N  c #4D2A15",
"B  c #492C1A",
"V  c #552D17",
"C  c #562E18",
"Z  c #42341B",
"A  c #4E381D",
"S  c #55321B",
"D  c #5D351C",
"F  c #523F18",
"G  c #60381F",
"H  c #60371D",
"J  c #4B3423",
"K  c #453424",
"L  c #5C3A22",
"P  c #543A25",
"I  c #463C37",
"U  c #643C22",
"Y  c #683F24",
"T  c #594511",
"R  c #795E18",
"E  c #594329",
"W  c #5D4837",
"Q  c #6B4226",
"!  c #62452D",
"~  c #6D4528",
"^  c #684528",
"/  c #73492B",
"(  c #754A2A",
")  c #695529",
"_  c #735427",
"`  c #674B33",
"'  c #6E5139",
"]  c #7E5432",
"[  c #775536",
"{  c #2B3642",
"}  c #2D3945",
"|  c #2F3C49",
" . c #313D4A",
".. c #333B44",
"X. c #34414E",
"o. c #39444E",
"O. c #364452",
"+. c #384755",
"@. c #3A4956",
"#. c #3C4C5B",
"$. c #374857",
"%. c #3E4F60",
"&. c #3F5162",
"*. c #424243",
"=. c #48494A",
"-. c #464E56",
";. c #41515F",
":. c #4F5153",
">. c #53575B",
",. c #775B43",
"<. c #415364",
"1. c #435769",
"2. c #465A6D",
"3. c #485C6E",
"4. c #475D70",
"5. c #495E71",
"6. c #5C5F64",
"7. c #4C6175",
"8. c #4E6479",
"9. c #50677C",
"0. c #52697E",
"q. c gray38",
"w. c #76797D",
"e. c #9B7912",
"r. c #A07C11",
"t. c #815532",
"y. c #845A36",
"u. c #855D3A",
"i. c #895D39",
"p. c #8D5B36",
"a. c #925E37",
"s. c #89552E",
"d. c #8B623D",
"f. c #806130",
"g. c #92653E",
"h. c #976A3A",
"j. c #8D7434",
"k. c #917229",
"l. c #886341",
"z. c #936740",
"x. c #976941",
"c. c #9C6E45",
"v. c #976A48",
"b. c #9F7046",
"n. c #856A50",
"m. c #896E54",
"M. c #8E7358",
"N. c #91755A",
"B. c #987A5F",
"V. c #96795E",
"C. c #A07147",
"Z. c #A47449",
"A. c #AA764B",
"S. c #AE794C",
"D. c #B37B4F",
"F. c #B47D50",
"G. c #A06F45",
"H. c #B78F19",
"J. c #A68123",
"K. c #BF9823",
"L. c #CBA020",
"P. c #E8B414",
"I. c #F9C117",
"U. c #FAC423",
"Y. c #BE8152",
"T. c #BFA55A",
"R. c #9F8063",
"E. c #A68568",
"W. c #C58657",
"Q. c #C78858",
"!. c #C88858",
"~. c #E4C45F",
"^. c #556D84",
"/. c #586F87",
"(. c #5B758D",
"). c #587088",
"_. c #5D7790",
"`. c #5E7892",
"'. c #7A7E82",
"]. c #627C95",
"[. c #7D8186",
"{. c #7F8288",
"}. c #818489",
"|. c #86898E",
" X c #8B8E93",
".X c #8E9196",
"XX c #919499",
"oX c #96999D",
"OX c #94979B",
"+X c #9B9DA2",
"@X c #9EA0A5",
"#X c #A3A6A9",
"$X c #B3B6B9",
"%X c #B6B9BC",
"&X c #FCE59D",
"*X c #BABCC0",
"=X c #BFC1C4",
/* pixels */
"                                                                                                                                            ",
"                                                    y 9 h j h z f f h l { { { { { h . %                                                     ",
"                                          , @ # X.f f 3.5.4.5.4.4.4.5.5.| %.(.#.{ { { } e h * O y %                                         ",
"                                  % 7 q l <.&.$.@.8.} 9 %.5.4.5.4.4.5.1.h & f & h O.2.+. .0.5.&.&.} % =                                     ",
"                              q q j 2.1.^.].].0.@.;. .+  .5.4.5.4.5.3.5.2.l l <.2.4.O.$  .`.`.`.^.#.l j % O q                               ",
"                          *.9 * @ <.].].(.(.2.7  .^.^.l * <.5.5.5.5.4.2.4.1.2.<.2.&.@ 9 /._.8.<.7  ./.O.& 6 7 *.                            ",
"                      *.* X.1.<.9 f /.].]./.+.k $.8._.^.7  .5.<. .X.3.7.5.7.&.h #. .j  ._._.O.f { ^._.(./.(.5.& g >.                        ",
"                    :.z  .3.5.3.1. .<.(.].(.(.^. .<._.(. .# h 7 * & k { O.1.} @.| 6 ^._._._.(._._._._._._.%.| } 2.+.& *.                    ",
"                  *.o.2.4.4.4.4.5.O.* <.].(.(.(.(.(./.].(.O.X & $.O.{ f & l @.2.8  .(.(._._._.^.$.(._.(.$.# { 2.5.5.X.& b b                 ",
"              q.= { 2.4.3.4.5.5.5.1.f & <./.} h f h h 5.].(.| 9 3.5.4.2.O.#.5.{ $.(._.(./.^. .h 1.(.(.O.# { %.{ 3.3.2.$ . q =.              ",
"            q.8 { 2.5.3.4.4.4.4.2.5.2.f q g <.5.5.5.5.^.(.(.1.# } 4.2.4.3.3.7.k 3.(._.2.e j ;.5.(.`.&.# { 3.2.&.3.4.2.8 * } b               ",
"          =.@ h 4.4.3.4.5.3.3.5.5.5.1.{ t = j r f f g g r r 9 % & q q 9 8 e = * e g f e = = e f f >.o.k 1.7.1.&.3.4.3.1.1.1.o.*             ",
"          = & 8 &.7.3.3.5.4.4.1.<.6.w J Y L : m U S Y U L P : M L L Q U D S : N L D U Y L S : : D E K q X.1.#.9 3.3.4.4.3.5.X.+ *.          ",
"        % 9 3.} l { 1.3.3.4.4.} , ! ( ( ~ Y m S t.] p.y.t.( M L ] t.a.t.] ( M Q t.] y.p.] / M S ] ] t.p.J x X.8 2.3.3.4.3.1.z e 7 =.        ",
"      *.= X.&._.1.& f 1.3.#.l a L ( s.( / ~ M Y G.c.D.A.b.x.V / c.b.D.Z.b.z.D t.C.b.Z.F.c.g.D ~ c.c.A.W.Z.] a f 3.4.3.1.l r 0 X. .r         ",
"    b = <.^.X.&.(.1.& f <.9 ; Q / ( s.t.i.i.C Y G.G.D.A.b.x.V / C.C.F.A.C.x.S ] C.b.A.F.b.g.D ~ c.G.A.W.A.C.E 3 X.4.1.0 @ 8 X.X.^.7.*.      ",
"    x 8 ^.`.^.O.5.].1.7 -.< 1 Y / ( x.Z.G.g.C Y b.b.F.A.b.x.V / C.C.D.Z.C.g.C t.C.b.Z.F.C.z.H Q c.b.A.!.A.c.Y C I O.0 & 1.<. .^._.^.e       ",
"    t 1.`._._.(./._.(.5.b C M Y / y.Y.S.G.a.C Y b.b.F.A.b.x.V / Z.C.F.Z.C.h.D ] C.b.A.F.C.g.D ~ c.b.A.!.A.c.Y D l.2 6 2.`._./._.(.(.h i     ",
"  = e 0.`.`.8.$.^._./.h P U 1 Y ( c.W.S.Z.x.C Y C.b.F.A.b.x.V / C.C.D.A.C.g.D t.C.C.A.F.C.g.D ~ c.b.A.!.A.c.Y L x.K n _._.`.`.`.(._.8.v     ",
"  = &.`.(.`.5.|  .O.%.> U U m Y z.A.W.S.G.a.C Y b.c.F.A.b.x.V / C.b.D.A.C.g.C t.C.b.Z.F.C.g.H Q c.b.A.W.A.c.U D b.l.I 8./.O.|  .7.`.9.O =   ",
"  = &.(.(.(.(.(.1. .g J / L m ( G.Z.W.S.G.a.C Y C.b.F.A.G.x.V / C.C.D.Z.C.z.D ] C.b.Z.F.C.g.D ~ c.b.A.!.A.b.U D b.b.E 6 { O.O.O.7.(.^.} y   ",
"  e $ 6 8 7 7 6 7 6 > Y ~ U M i.G.Z.W.S.G.g.C Y C.b.F.A.G.v.V / C.C.D.A.C.g.D ] Z.b.Z.F.C.g.H ~ c.b.A.!.A.b.Y D b.Z.! . . 6 8 6 6 7 8 * t   ",
"  = $ # . . . . @ # > ~ / U M g.C.A.W.S.G.g.C Y C.c.F.A.c.x.V / C.C.D.A.C.z.D ] Z.b.A.F.G.g.H ~ b.b.A.!.A.c.U D v.C.! @ $ $ $ $ & $ & # *   ",
"% h %.O.@ 6 6 7  .3.w Y / D M z.G.Z.W.D.G.x.C Y C.c.F.A.C.x.V / C.C.D.Z.C.z.S ] Z.C.Z.F.Z.z.H ~ h.b.A.Q.A.c.U D c.Z.! $.^.&.#.#.#.$.&.^.@.& ",
"% . + j  .).(.(.$. ., ~ / U m z.C.A.W.S.C.a.C Y Z.b.F.A.C.x.V / Z.C.D.A.C.g.D ] Z.b.Z.F.b.l.H Y c.C.A.Q.A.G.U L c.C.! #.$.* k l l h & O.l % ",
"  f O.^._._._._.(.O.< ~ ~ H M a.C.Z.W.S.C.z.C Y C.C.F.A.G.x.V / C.b.D.A.C.h.C ] C.b.Z.Y.C.z.H ~ c.C.A.W.A.G.U D c.A.! $.#.#.(._.(.(.X.X . @ ",
"  @.].(.(._._._._.^.u ~ ~ U M g.G.Z.W.S.G.a.C Y C.C.F.A.G.x.C / C.b.D.Z.b.h.D t.b.b.A.F.C.z.U Q c.c.A.W.A.c.U D c.C.` %.]._._._._._.).1.l O ",
"  +.`.].`.`.`.`._.^.w ~ ~ U M g.C.Z.W.S.G.x.C Y C.v.D.A.G.x.V / C.C.D.A.b.g.D ] b.c.A.F.C.z.D ~ c.G.A.W.A.b.Y D c.C.! %.].`.`.`.`.`.`.`.<.O ",
"  | 8.7.7.7.7.7.8.1.w ~ ~ U M z.C.A.!.S.G.a.C Y C.b.F.A.G.x.V ( C.C.D.Z.C.g.D t.C.G.A.F.C.z.H Q c.c.S.W.A.c.Y D c.C.! X.8.7.7.7.7.7.7.8.X.% ",
"  . o o o o o X X X ; ~ ~ U M z.C.Z.!.S.G.z.C Y C.C.D.A.C.x.V ( Z.C.F.A.C.g.D t.Z.C.A.F.C.z.D ~ c.G.S.W.A.c.U D C.Z.! . X X X O o X o o . % ",
"  & e 9 0 9 . & 0 8 > Y Q D m u.z.v.F.G.z.p.M U z.z.Z.c.z.i.M ~ g.g.A.x.d.d.V ( z.z.x.Z.z.i.D U g.z.c.F.c.z.D S g.x.E * 9 0 f 6 * 0 9 9 6 % ",
"  } 5.7.5. .{ { h <.6 2 w , , w u u p p u u , 2 i i p u u u , w u a a u u u 2 2 u u p p u u , 2 u u a p u u w 2 u u = | 7.#.{ 6 6 &.4.7. .% ",
"  { 5.<.0 9 5.%. .;.v '.'.'.}.+X|.'.}.'.[.w. XoX|.[.[.'.'.[.XX+X}.[.[.[.[.{..XXX}.'.'.{.'.{.|.+X'.'.'.{.[.'.|.+X|.[.:.{ h j | | 6 6 &.5. .@ ",
"  { 4.9 @  .5.4.5.<.v |. X{. X*X+X X X X X}.oX%XoX X X X X X#X$X.X.X.X.X X|.@X#X X X.X X X|. X$XXX X X.X X}. X*X+X.X>.| #.#.5.5.&.6 O.4. .O ",
"  } 5.#.6 { 4.4.5.;.v }.|.|.'.}.|.|.|.|.|.|.'.|.|.|.|.|. X}.'.'.}.|.|.|.|.}.[.[.|.|.|.|.|.}.w.}.|.|.|.|.|.|.'.|.|.|.>.| 5.5.5.1.5.f 9 2.X.O ",
"  } 5.4.1.1.4.5.5.<.6 t s t t s x c c x c i g t x x x x x x g i s x x x x s t t x x c c x x i t x x x c c x g t s c , | 5.5.5.#.$.2.1.4. .O ",
"  { 5.5.5.5.5.5.5.&., L U N 1 [ u.i.Z.z.u.] m D u.u.z.d.u.] m U d.u.x.d.d.] N ^ u.u.i.v.u.] M U u.u.d.Z.d.u.S N y.l.P | 5.5.5.5.4.4.4.5. .# ",
"  6 f f f f f f f 0 , Y / U m z.C.A.Q.S.C.g.C Y C.C.F.S.C.c.V ( b.b.Y.Z.b.g.D ] Z.C.A.F.C.z.H ~ b.b.S.Q.S.C.U D v.Z.! 6 h f f f f f f f 6 % ",
"  h &.&.%.%.%.%.%.#.2 Y / U m g.C.Z.W.S.G.g.C Y b.b.F.A.C.z.V / b.b.D.Z.b.g.D ] C.C.Z.F.C.z.H Y c.b.A.W.A.b.U D b.C.! { &.%.%.%.%.&.&.&.{ % ",
"  X.^.7. .(.`.].`.^.u ~ Y G M g.C.Z.W.S.C.z.C Y b.b.F.A.C.z.V / b.b.Y.Z.C.g.D ] C.c.A.F.C.z.U ~ c.b.A.W.v.E K 4 ' Z.! &.`.`.`.(.0.0.^.].<.% ",
"  e g k 7.(.].].(.^.w Y ( U M g.C.Z.W.S.c.g.C Y C.C.F.A.C.x.V / Z.b.Y.Z.b.g.D ] b.b.Z.Y.C.z.H Y h.C.R.Y.[ H.K.T.j.l.` #.`._._.&.0 e k 1.X.% ",
"  O.(.(._.`.`.(.(.^.w Y Y U M g.C.A.W.D.b.g.C Y v.b.F.A.G.v.V ( b.b.D.Z.Z.g.D ] Z.b.b.Y.G.z.H ~ C.C.C.v.) P.U.&X~._ K #.`._._.(.).).0.l 8 % ",
"  +.`.(._._.(._.(.^.y / ( U m g.b.Z.W.S.G.g.C Y b.b.D.A.b.x.V / Z.b.D.A.b.g.C ] b.c.b.Y.C.z.H ~ h.A.[ 5 5 H.I.I.L.E Z #.`.(._._._._._._.#.% ",
"  +.`.`._.`.(.`.].^.y Y / U M g.C.Z.W.S.G.g.C Y b.b.D.A.b.x.V ( b.b.D.Z.b.h.D ] b.c.b.Y.G.g.H ~ b.C.[ R T ] J.J.j.j.k.$.`._._._._._._.`.&.% ",
"  O.).^.^.^.).^.^.5.y / Y L M d.G.Z.W.S.G.g.C Y C.b.F.A.C.x.C / b.b.Y.b.b.g.D ] b.b.Z.Y.h.g.H ~ c.C.x._ R A 3 3 P k.Z @.).^.^.).^.).^.).@.% ",
"  & 9 9 9 9 9 9 j 7 < Y / U M g.G.A.W.S.G.g.C Y b.b.F.A.C.x.V / Z.b.D.A.b.g.D ] b.b.C.Y.b.g.H ~ c.b.A.F._ e.r.r.T Z Z * 9 9 9 9 9 0 9 9 * @ ",
"  k &.&.&.&.&.&.<.@.2 ~ / U M g.C.A.W.S.G.g.C Y C.b.D.A.G.x.V / b.b.Y.A.b.g.D ] b.b.R.S.b.g.D ~ c.b.A.Q.g.A 4 4 ' x.W l &.&.&.&.<.&.<.<.} @ ",
"  } 7.3.7.3.3.7.5.<.2 ~ Y U M g.G.Z.W.D.G.g.C Y b.c.F.S.G.x.V / Z.b.S.C.Z.z.D ] Z.b.A.Y.b.g.D ) c.b.A.Q.A.g.H S c.Z.! | 7.4.4.7.3.3.3.3.X.- ",
"  7 &.5.&.8.4.4.4.&.2 ~ / G N g.C.Z.W.S.G.g.C Y Z.b.F.A.C.x.V / C.b.D.Z.b.g.C ] C.b.C.F.C.g.D ~ c.b.A.!.A.b.U D b.b.! | 5.2.4.4.4.5.4.4.X.# ",
"  8 f 0 { 8.$.0 &.&.2 ~ / D M d.C.Z.W.S.C.a.C Y C.b.F.A.G.x.V / C.C.D.A.C.h.D ] C.C.Z.F.C.g.H ~ c.b.A.!.A.b.U D b.C.!  .7.0.3.2.1.3.7.g = @ ",
"  X.#.O.O.0 h $.&.&.9 ^ / G M g.C.Z.W.S.C.a.C Y b.b.S.A.C.x.V ( Z.b.F.A.b.h.D ] C.C.A.F.C.g.D ~ c.b.A.!.A.c.U D b.C.!  .7.9.<.9 8 f <.$.f @ ",
"  +.5.5.&.%.&.4.7.&.y ^ / G M g.G.A.W.S.b.z.C Y b.b.F.A.G.z.V ( C.b.D.A.b.g.D ] C.C.A.F.b.g.D ~ b.b.A.W.A.b.Y D c.C.! | 3.7.1.<.<.#.2.7.X.@ ",
"  X.7.4.7.4.4.4.7.&.2 ~ / G M g.C.Z.W.S.G.g.V Y b.b.D.A.c.x.V ~ C.b.D.A.b.g.D ] C.b.Z.Y.Z.g.D ~ c.b.A.!.A.b.U D b.C.W X.7.7.4.7.5.5.5.5. .% ",
"  9 | { } { } } } l , ~ ~ G M g.G.A.Q.S.G.g.C Y b.b.F.A.C.x.V / Z.b.Y.Z.Z.g.D ] Z.C.Z.F.b.z.D ) c.b.A.!.A.b.U D c.C.! 9 } { } { } } | | 0 % ",
"  r X.| | X.| | | { < Y ^ S m y.z.x.D.G.g.u.V L z.d.C.c.g.i.M Q z.g.C.g.d.u.S ( g.g.x.Z.g.] S U d.g.x.D.c.g.D S g.g.P 9 | | | |  .| }  .j # ",
"  1.`.`.`.`.[._.`.^.= q w w 2 y u i p u u u , w i i p p i u w w u u d u u u 2 w i u i s u u 2 w u u s a u u y 2 u u 2 8 ^.`._._.(.`.`.].<.O ",
"  #.^.^.(.)._.(._.^.v [.}.'. X+X X'.{.}.{.'..X@X|.}.}.}.}.[.OX#X|.{.[.{.{.}. X@X|.{.}.}.[.}..XoX|.[.}.{.}.'. X@X X{.w.z 7._.`.<.2._._.`.%.O ",
"  e 0 k &.O.(._._.8...|. X|.XX%X+X X X X X}.oX$XXX X X X X X#X=XoX.X X.X.X|.XX%XXX.X X X.X|.|.$X.X X X X X|.XX$XOX.X{.x 8._._.^.7.8.8.(.O.+ ",
"  #.).9.<.^._._._.0.n {.|.|.'.}.}.|.}.|.|.|.'.[.}.|.|.|.|.}.'.|.|.|.|.|.|.}.[.}.|.|.|.|.}.}.w.{.|.|.|.|.|.|.'.{.{.|.w.z 8._._._.$.& k 7.7 + ",
"  ;.`._.(._._._._.^.7 t t u y i i c c c x i t t s i s s s i t g s s s s s s t i s s s x s s y i x i s c s x t t s s y 8 9._._._.).$.8._.%.+ ",
"  ;.`.(._._.(._._.0.w L L S : ] i.z.Z.z.i.] M S d.d.c.g.d.] m U d.f.c.d.d.t.N ~ d.d.l.x.d.t.N U i.i.z.A.z.u.S V u.d.P $.(.(._.(.(.(._._.#.O ",
"  e k k h f h h h f < ~ ( G N g.G.A.W.D.C.g.S Q C.C.F.A.b.c.C ( b.b.Y.Z.b.g.D ] C.b.A.Y.C.g.L ~ c.C.S.Q.A.b.Y D b.C.! 7 k h h k h h h k 7 O ",
"  l O.O.$.$.O.O.$.| , ~ / D M g.C.A.W.S.b.g.C Y b.b.D.A.C.x.V / C.b.Y.b.C.g.D ] C.b.A.F.C.z.D ~ c.C.A.W.A.c.Q D c.C.! h $.O.O.$.$.O.O.$.h o ",
"  X.7.5.4.#.&.7.7.&.2 ~ / U M d.C.Z.W.S.c.g.C Q C.c.D.A.b.x.V ( C.b.Y.Z.C.g.D ] b.c.A.F.C.g.D ~ c.c.A.W.A.c.Y D b.C.! | 5.4.7.&.1.5.3.7.X.. ",
"  X.5.5.#.# +.2.&.&.2 ~ / G M g.C.Z.W.S.G.g.C Y C.G.D.A.C.x.C ( C.C.D.A.b.g.C t.C.C.A.D.C.z.D ~ c.c.A.!.A.c.Y D b.C.!  .5.7.1.l  .1.3.7.| + ",
"   .7.1.{ { 8.@.#.2.w ~ / G M g.b.A.W.S.c.g.V Y C.b.D.A.c.x.V ( C.C.F.A.C.g.D ] C.C.A.D.c.g.H ~ c.C.A.W.A.b.U D b.C.!  .7.$.<.@.h e 1.7.| O ",
"  } 5.1.X.3.3.3.7.3.2 ~ / G M g.C.Z.W.S.C.g.V Q C.b.F.A.C.z.V / C.C.F.C.C.g.D ] C.b.Z.D.C.z.H Q c.b.A.W.A.c.Y D c.C.! 8 1.O.3.3.O. .1.7.X.O ",
"  l 1.1.1.1.1.1.1.#.2 ~ ~ D N d.b.Z.W.A.b.d.C Q b.b.S.A.G.z.V / C.b.F.A.C.g.D ] C.b.A.D.G.g.D ~ c.b.A.W.A.c.U D c.C.! f <.1.1.1.1.5.1.1.{ @ ",
"  * e r e r r r t e w ` ' ! J n.N.V.E.B.N.n.L ` N.N.E.B.N.m.P ' N.N.E.V.N.n.L ,.N.N.V.E.N.n.E ` N.N.B.E.V.N.` ! M.N.W e g f t r r e e e =   ",
"                                                                                                                                            "
};
