/* XPM */
static char *result[] = {
/* columns rows colors chars-per-pixel */
"49 65 96 2 ",
"   c black",
".  c #010101",
"X  c #020202",
"o  c gray3",
"O  c gray7",
"+  c #151514",
"@  c gray10",
"#  c gray11",
"$  c #1D1D1D",
"%  c #1E1E1E",
"&  c #2B2405",
"*  c #2E2607",
"=  c #302806",
"-  c #2C2C2C",
";  c #302E27",
":  c #312F28",
">  c gray19",
",  c #363534",
"<  c gray21",
"1  c gray22",
"2  c #68550D",
"3  c #42403E",
"4  c #49473B",
"5  c #424241",
"6  c gray30",
"7  c gray31",
"8  c gray35",
"9  c #5F5F5F",
"0  c gray38",
"q  c #626262",
"w  c #646464",
"e  c #6C6C6C",
"r  c #7D7C74",
"t  c #7F7D76",
"y  c #797979",
"u  c #7E7D7B",
"i  c #7C7C7C",
"p  c #7F7E7C",
"a  c #80690F",
"s  c #B59516",
"d  c #B69616",
"f  c #B89816",
"g  c #978023",
"h  c #C9A518",
"j  c #CFAA19",
"k  c #E0B81B",
"l  c #F7CC1E",
"z  c #F8CD1F",
"x  c #FFD21F",
"c  c #FFD325",
"v  c #DCC04D",
"b  c #FFDD51",
"n  c #FFE477",
"m  c #FFE577",
"M  c gray54",
"N  c gray55",
"B  c #8E8E8E",
"V  c gray56",
"C  c #999688",
"Z  c gray58",
"A  c #959595",
"S  c #979797",
"D  c #9C9A97",
"F  c gray60",
"G  c #9A9A9A",
"H  c #A09F9C",
"J  c #A4A29E",
"K  c #ACABA3",
"L  c #ADABA4",
"P  c #B6B3A5",
"I  c #B6B2AE",
"U  c #BDBAAC",
"Y  c #BEBBB6",
"T  c #FFE587",
"R  c #FFE687",
"E  c #FFE588",
"W  c #FFE688",
"Q  c #C7C3BD",
"!  c #D1CCC4",
"~  c #D2CDC6",
"^  c #FFF7CF",
"/  c #ECE7E0",
"(  c #F7F1E8",
")  c #F7F2E9",
"_  c #F8F2EA",
"`  c #FFF9EA",
"'  c #FEF8EF",
"]  c #FFF9F0",
"[  c #FBFAF9",
"{  c #FBFBFB",
"}  c #FFFEFB",
"|  c #FFFEFC",
" . c #FFFFFC",
".. c #FFFFFE",
"X. c white",
"o. c None",
/* pixels */
"o.o.o.o.o.o.o.o.o.o.o.o.o.o.o.o.o.o.o.o.o.o.o.o.o.o.o.o.o.o.o.o.o.o.o.o.o.o.o.o.o.o.o.o.o.o.o.o.o.",
"o.o.o.o.o.o.o.o.o.o.o.o.o.o.o.o.o.o.o.o.o.o.o.o.o.o.o.o.o.o.o.o.o.o.o.o.o.o.o.o.o.o.o.o.o.o.o.o.o.",
"o.o.o.o.o.o.o.o.o.o.o.o.o.o.o.o.o.o.o.o.o.o.o.o.o.o.o.o.o.o.o.o.o.o.o.o.o.o.o.o.o.o.o.o.o.o.o.o.o.",
"o.o.o.o.o.o.o.o.o.o.o.o.o.o.o.o.o.o.o.o.o.o.o.o.o.o.o.o.o.o.o.o.o.o.o.o.o.o.o.o.o.o.o.o.o.o.o.o.o.",
"o.o.o.o.o.o.o.o.o.o.o.o.o.o.o.o.o.o.o.o.o.o.o.o.o.o.o.o.o.o.o.o.o.o.o.o.o.o.o.o.o.o.o.o.o.o.o.o.o.",
"o.o.o.o.o.o.o.o.o.o.o.o.o.o.o.o.o.o.o.o.o.o.o.o.o.o.o.o.o.o.o.o.o.o.o.o.o.o.o.o.o.o.o.o.o.o.o.o.o.",
"o.o.o.o.o.o.o.o.o.o.o.o.o.o.o.o.o.o.o.o.o.o.o.o.o.o.o.o.o.o.o.o.o.o.o.o.o.o.o.o.o.o.o.o.o.o.o.o.o.",
"o.o.o.o.o.o.o.o.o.o.o.o.o.o.o.o.o.o.o.o.o.o.o.o.o.o.o.o.o.o.o.o.o.o.o.o.o.o.o.o.o.o.o.o.o.o.o.o.o.",
"o.o.o.o.o.o.o.o.o.o.o.o.o.o.o.o.o.o.o.o.o.o.o.o.o.o.o.o.o.o.o.o.o.o.o.o.o.o.o.o.o.o.o.o.o.o.o.o.o.",
"o.o.o.o.o.o.o.o.o.o.o.o.o.o.o.o.                                  o.o.o.o.o.o.o.o.o.o.o.o.o.o.o.o.",
"o.o.o.o.o.o.o.o.o.o.o.o.o.o.o.o.                                  o.o.o.o.o.o.o.o.o.o.o.o.o.o.o.o.",
"o.o.o.o.o.o.o.o.o.o.o.o.o.o.o.o.@ # # # # # # # # # # # # # # # @ o.o.o.o.o.o.o.o.o.o.o.o.o.o.o.o.",
"o.o.o.o.o.o.o.o.o.o.o.o.o.o.    7 0 0 0 0 0 0 0 0 0 0 0 0 0 0 0 7     o.o.o.o.o.o.o.o.o.o.o.o.o.o.",
"o.o.o.o.o.o.o.o.o.o.o.o.o.o.    7 0 0 0 0 0 0 0 0 0 0 0 0 0 0 0 7     o.o.o.o.o.o.o.o.o.o.o.o.o.o.",
"o.o.o.o.o.o.o.o.o.o.o.o.    0 0 0 0 e F F F F F F F F F F F F F F F F     o.o.o.o.o.o.o.o.o.o.o.o.",
"o.o.o.o.o.o.o.o.o.o.o.o.    0 0 0 0 e F F F F F F F F F F F F F F F F     o.o.o.o.o.o.o.o.o.o.o.o.",
"o.o.o.o.o.o.o.o.o.    O 8 8 0 0 M Z A F F F F F F F F F F F F F F F F N N $     o.o.o.o.o.o.o.o.o.",
"o.o.o.o.o.o.o.o.o.    O 0 0 0 0 B F F F F F F F F F F F F F F F F F F F F $     o.o.o.o.o.o.o.o.o.",
"o.o.o.o.o.o.o.o.o.    O 0 0 C C P U U U U U U U U U U U U U H F F F F F F $     o.o.o.o.o.o.o.o.o.",
"o.o.o.o.o.o.o.o.o.    O 0 0 ^ ^ ^ ^ ^ ^ ^ ^ ^ ^ ^ ^ ^ ^ ^ ^ K F F F F F F $     o.o.o.o.o.o.o.o.o.",
"o.o.o.o.o.o.o.o.o.    O q q ^ ^ ^ ^ ^ ^ ^ ^ ^ ^ ^ ^ ^ ^ ^ ^ L G G F F F F % . . o.o.o.o.o.o.o.o.o.",
"o.o.o.o.o.o.o.o.o.    ; ^ ^ ^ ^ ` ] ] ] ] ] ] ] ] ] ] ] ] ] ] ] / F F F F F F i     o.o.o.o.o.o.o.",
"o.o.o.o.o.o.o.o.o.    ; ^ ^ ^ ^ ` ] ] ] ] ] ] ] ] ] ] ] ] ] ] ] / F F F F F F i     o.o.o.o.o.o.o.",
"o.o.o.o.o.o.o.o.o.    >  . . . .5 + 3 ] ] ] ] } ........+ + ~ ] / F F F F F F i     o.o.o.o.o.o.o.",
"o.o.o.o.o.o.o.o.o.    > X.X.X.X.< o , ] ] ] ] | X.X.X.X.o o ! ] / F F F F F F i     o.o.o.o.o.o.o.",
"o.o.o.o.o.o.o.o.o.    > X.X.X.X.< o , ] ] ] ] | X.X.X.X.o o ! ] / F F F F F F i     o.o.o.o.o.o.o.",
"o.o.o.o.o.o.o.o.o.    > X.X.X.X.< o , ] ] ] ] | X.X.X.X.o o ! ] / F F F F F F i     o.o.o.o.o.o.o.",
"o.o.o.o.o.o.o.o.o.    > { { { { < o , ] ] ] ] [ { { { { o o ! ] / F F F F F F i     o.o.o.o.o.o.o.",
"o.o.o.o.o.o.o.o.o.    X o o o o o o , ] ] ] ] , o o o o o o ! ] / F F F F F F i     o.o.o.o.o.o.o.",
"o.o.o.o.o.o.o.o.o.    X o o o o o o , ] ] ] ] , o o o o o o ! ] / F F F F F F i     o.o.o.o.o.o.o.",
"o.o.o.o.o.o.o.    h l l l l l l l l z c c ] ] _ ) ) ) ) ) ) ' ] / F F F F F F i     o.o.o.o.o.o.o.",
"o.o.o.o.o.o.o.    j x x x x x x x x x x x ] ] ] ] ] ] ] ] ] ] ] / F F F F F F i     o.o.o.o.o.o.o.",
"o.o.o.o.o.o.o.    2 a g n m W R E W T T W ] ] ] ] ] ] ] ] ] ] ] / F F F F F F i     o.o.o.o.o.o.o.",
"o.o.o.o.o.o.o.        ; ^ ^ ] ] ] ] ] ] ] ] ] ] ] ] ] ] ] ] ] ] / F F F F F F i     o.o.o.o.o.o.o.",
"o.o.o.o.o.o.o.        ; ^ ^ ] ] ] ] ] ] ] ] ] ] ] ] ] ] ] ] ] ] / F F S S F F i     o.o.o.o.o.o.o.",
"o.o.o.o.o.o.o.o.o.    ; ^ ^ ] ] ] ] ] ] ] ] ] ] ] ] ] ] ] ] ] ] / F F 0 0 B F i     o.o.o.o.o.o.o.",
"o.o.o.o.o.o.o.o.o.    ; ^ ^ ] ] ] ] ] ] ] ] ] ] ] ] ] ] ] ] ] ] / F F 0 0 B F i     o.o.o.o.o.o.o.",
"o.o.o.o.o.o.o.    6 9 r ^ ^ ] ] ] ] ] ] ] ] ] ] ] ] ] ] ] ] ] ] / F F 0 0 B F i     o.o.o.o.o.o.o.",
"o.o.o.o.o.o.o.    7 0 t ^ ^ ] ] ] ] ] ] ] ] ] ] ] ] ] ] ] ] ] ] / F F 0 0 B F i     o.o.o.o.o.o.o.",
"o.o.o.o.o.    1 1 8 0 t ^ ^ ] ] ] ] ] ] ] ] ] ] ] ] ] ] ] ] I J D y y 0 0 B F i     o.o.o.o.o.o.o.",
"o.o.o.o.o.    0 0 0 0 t ^ ^ ] ] ] ] ] ] ] ] ] ] ] ] ] ] ] ] p 0 0 0 0 0 0 B F i     o.o.o.o.o.o.o.",
"o.o.o.o.o.    0 0 0 0 t ^ ^ ] ] ] ] ] ] ] ] ] ] ] ] ] ] ( ( u 0 0 0 0 w w V F i     o.o.o.o.o.o.o.",
"o.o.o.o.o.    0 0 0 0 t ^ ^ ] ] ] ] ] ] ] ] ] ] ] ] ] ] 0 0 0 0 0 0 0 F F F F i     o.o.o.o.o.o.o.",
"o.o.o.o.o.    0 0 0 0 t ^ ^ ] ] ] ] ] ] ] ] ] ] ] ] ] ] 0 0 0 0 0 0 0 F F F F i     o.o.o.o.o.o.o.",
"o.o.o.o.o.    . . . . : ^ ^ ] ] ] ] ] ] ] ] ] ] ] ] ] ] 0 0 0 0 e F F F F F F i     o.o.o.o.o.o.o.",
"o.o.o.o.o.            ; ^ ^ ] ] ] ] ] ] ] ] ] ] ] ] ] ] 0 0 0 0 e F F F F F F i     o.o.o.o.o.o.o.",
"o.o.o.o.o.o.o.o.o.    ; ^ ^ ] ] ] ] ] ] ] ] ] ] ] ] ] ] Q Q Q Q Y F F F F F F i     o.o.o.o.o.o.o.",
"o.o.o.o.o.o.o.o.o.    ; ^ ^ ] ] ] ] ] ] ] ] ] ] ] ] ] ] ] ] ] ] / F F F F F F i     o.o.o.o.o.o.o.",
"o.o.o.o.o.o.o.o.o.    ; ^ ^ ] ] ] ] ] ] ] ] ] ] ] ] ] ] ] ] ] ] / F F F F F F i     o.o.o.o.o.o.o.",
"o.o.o.o.o.o.o.o.o.    ; ^ ^ ] ] ] ] ] ] ] ] ] ] ] ] ] ] ] ] ] ] / F F F F F F i     o.o.o.o.o.o.o.",
"o.o.o.o.o.o.o.o.o.    ; ^ ^ ] ] ] ] ] ] ] ] ] ] ] ] ] ] ] ] ] ] / F F F F F F i     o.o.o.o.o.o.o.",
"o.o.o.o.o.o.o.o.o.o.o.o.    ^ ^ ^ ^ ^ ^ ^ ^ ^ ^ ^ ^ ^ ^ ^ ^ ^ ^ ^ ^ ^ F F $     o.o.o.o.o.o.o.o.o.",
"o.o.o.o.o.o.o.o.o.o.o.o.    ^ ^ ^ ^ ^ ^ ^ ^ ^ ^ ^ ^ ^ ^ ^ ^ ^ ^ ^ ^ ^ F F $     o.o.o.o.o.o.o.o.o.",
"o.o.o.o.o.o.o.o.o.    * d d b b b b b b b 4 4 v b b b b b b b b v 4 4 - - o.o.o.o.o.o.o.o.o.o.o.o.",
"o.o.o.o.o.o.o.o.o.    = x x x x x x x x x     j x x x x x x x x j         o.o.o.o.o.o.o.o.o.o.o.o.",
"o.o.o.o.o.o.o.o.o.    & k k k k k k k k k     f k k k k k k k k s         o.o.o.o.o.o.o.o.o.o.o.o.",
"o.o.o.o.o.o.o.o.o.                        o.o.                        o.o.o.o.o.o.o.o.o.o.o.o.o.o.",
"o.o.o.o.o.o.o.o.o.                        o.o.                        o.o.o.o.o.o.o.o.o.o.o.o.o.o.",
"o.o.o.o.o.o.o.o.o.o.o.o.o.o.o.o.o.o.o.o.o.o.o.o.o.o.o.o.o.o.o.o.o.o.o.o.o.o.o.o.o.o.o.o.o.o.o.o.o.",
"o.o.o.o.o.o.o.o.o.o.o.o.o.o.o.o.o.o.o.o.o.o.o.o.o.o.o.o.o.o.o.o.o.o.o.o.o.o.o.o.o.o.o.o.o.o.o.o.o.",
"o.o.o.o.o.o.o.o.o.o.o.o.o.o.o.o.o.o.o.o.o.o.o.o.o.o.o.o.o.o.o.o.o.o.o.o.o.o.o.o.o.o.o.o.o.o.o.o.o.",
"o.o.o.o.o.o.o.o.o.o.o.o.o.o.o.o.o.o.o.o.o.o.o.o.o.o.o.o.o.o.o.o.o.o.o.o.o.o.o.o.o.o.o.o.o.o.o.o.o.",
"o.o.o.o.o.o.o.o.o.o.o.o.o.o.o.o.o.o.o.o.o.o.o.o.o.o.o.o.o.o.o.o.o.o.o.o.o.o.o.o.o.o.o.o.o.o.o.o.o.",
"o.o.o.o.o.o.o.o.o.o.o.o.o.o.o.o.o.o.o.o.o.o.o.o.o.o.o.o.o.o.o.o.o.o.o.o.o.o.o.o.o.o.o.o.o.o.o.o.o.",
"o.o.o.o.o.o.o.o.o.o.o.o.o.o.o.o.o.o.o.o.o.o.o.o.o.o.o.o.o.o.o.o.o.o.o.o.o.o.o.o.o.o.o.o.o.o.o.o.o."
};
