/* XPM */
static char *result[] = {
/* columns rows colors chars-per-pixel */
"70 70 113 2 ",
"   c #757064",
".  c #7A7467",
"X  c #7A7669",
"o  c #7E786A",
"O  c #7E7A71",
"+  c #817666",
"@  c #837C6C",
"#  c #897E6E",
"$  c #847E72",
"%  c #86826F",
"&  c #8A816E",
"*  c #91836E",
"=  c #858173",
"-  c #8C8473",
";  c #8E8874",
":  c #87877A",
">  c #8C8579",
",  c #8D897C",
"<  c #918573",
"1  c #928976",
"2  c #988972",
"3  c #918578",
"4  c #948B7B",
"5  c #9A8E7C",
"6  c #9C917E",
"7  c #A08E78",
"8  c #A2927E",
"9  c #938E83",
"0  c #9A8E81",
"q  c #969183",
"w  c #9C9383",
"e  c #9F9886",
"r  c #959489",
"t  c #9C958A",
"y  c #9D998B",
"u  c #9E9C91",
"i  c #A39684",
"p  c #A89783",
"a  c #A49985",
"s  c #AA9A86",
"d  c #A09689",
"f  c #A59B8A",
"g  c #AA9D8B",
"h  c #B19D88",
"j  c #A29D92",
"k  c #A6A08F",
"l  c #ADA18D",
"z  c #B3A48E",
"x  c #B8A68F",
"c  c #B8A88F",
"v  c #A7A393",
"b  c #ACA393",
"n  c #ADA897",
"m  c #A6A398",
"M  c #AAA59A",
"N  c #AFAA9C",
"B  c #B4A693",
"V  c #B8A691",
"C  c #B6A994",
"Z  c #BBAB96",
"A  c #B0A798",
"S  c #B5AA9A",
"D  c #BCAD99",
"F  c #BEB09B",
"G  c #ABA7A0",
"H  c #ADA8A1",
"J  c #B4AEA2",
"K  c #BEAFA1",
"L  c #B1AEA8",
"P  c #B5B2A7",
"I  c #BEB2A1",
"U  c #B6B4AA",
"Y  c #BCB6AB",
"T  c #BEBAAD",
"R  c #C1AD96",
"E  c #C1AE9B",
"W  c #C3B39D",
"Q  c #C9B69E",
"!  c #C8B89F",
"~  c #C5B6A2",
"^  c #C9B7A3",
"/  c #C7B8A3",
"(  c #CAB9A4",
")  c #C5BAAB",
"_  c #CDBCAA",
"`  c #D1BDA6",
"'  c #D1BEAA",
"]  c #C3BEB2",
"[  c #CFC0AD",
"{  c #D3C1AC",
"}  c #D9C6AE",
"|  c #C7C2B7",
" . c #CCC3B4",
".. c #C7C4BC",
"X. c #CBC5BF",
"o. c #CFCCBD",
"O. c #D4C4B2",
"+. c #D9C7B4",
"@. c #D7C8B5",
"#. c #DBCAB6",
"$. c #D1C4B9",
"%. c #D6CBBC",
"&. c #DECCB8",
"*. c #E1CEBB",
"=. c #E3D1BD",
"-. c #D3CCC6",
";. c #D6D4C6",
":. c #D8D7C7",
">. c #D7D2CA",
",. c #DAD5CB",
"<. c #DCDACC",
"1. c #E4E2D4",
"2. c None",
/* pixels */
"2.2.2.2.2.2.2.2.2.2.2.2.2.2.2.2.2.2.2.2.2.2.2.2.2.2.2.2.2.2.2.2.2.2.2.2.2.2.2.2.2.2.2.2.2.2.2.2.2.2.2.2.2.2.2.2.2.2.2.2.2.2.2.2.2.2.2.2.2.2.",
"2.2.2.2.2.2.2.2.2.2.2.2.2.2.2.2.d S ~ I J S S S B A S ~ _ _ ) ) ) ) I D D g d A S S D I I D S B g d i g 2.2.2.2.2.2.2.2.2.2.2.2.2.2.2.2.2.2.",
"2.2.2.2.2.2.2.2.2.2.2.2.2.2.q 0 i B S D D K S S J W ) ^ ' _ ^ ^ O.@. .O.%._ ~ ~ ~ W ^ ( ) K S D S B B S S g i 0 > $ 2.2.2.2.2.2.2.2.2.2.2.2.",
"2.2.2.2.2.2.2.2.2.2.2.2.q q w w 8 p B R D D D ~ ^ _ O.O.' ' ^ ` +.*.&.&.&.+.' _ _ ( ( ^ / ~ E E E W E D V g i w 5 3 < < 2.2.2.2.2.2.2.2.2.2.",
"2.2.2.2.2.2.2.2.2.2.2.w w w w i 7 7 c ! ` ` ' ` ` ' ' ' } ` ` ` ` ` } ` ` ` ( ^ ` Q ^ Q Q Q Q Q Q ( Q R R x h p p 0 5 # 0 g 2.2.2.2.2.2.2.2.",
"2.2.2.2.2.2.2.2.2.2.w i i w i p h x Q } +.} } } ` ` ^ ` Q ` ` Q ^ Q Q Q ^ ^ ^ Q Q ` ` Q Q Q ! ` ` ` Q R R R Z x h p p 0 s S K ~ 2.2.2.2.2.2.",
"2.2.2.2.2.2.2.2.d i i s i i p x Q Q ` ` ` Q ^ Q ^ Q Q Q Q Q Q ` Q Q Q Q ` Q Q Q Q Q Q Q ` ` ` ` Q Q R R c Z Z R V B b B V Z K S C P Y 2.2.2.",
"2.2.2.2.2.2.2.i d f s i p z D ^ ( ` Q Q Q Q ^ ^ Q Q ^ Q Q Q Q Q Q Q Q ` Q Q Q Q ! Q ` } } } { Q R R R c R R Z Z E E ~ ~ E E S S S F A S M 2.",
"2.2.2.2.2.2.j d p s p p h E ^ ^ ^ ^ ^ ^ ^ ^ ^ ^ ^ ( / / ^ ^ ^ ^ Q Q Q / / ! ! ! ( { } } [ ! R D Z Z C Z D D Z Z K E _ _ _ W E K C D D B 0 2.",
"2.2.2.2.2.A B h i p h V Q Q W Q ^ ^ ^ ` ^ ^ ^ _ ( ( ( / / / W ~ ` ( / Q ! ( [ { } [ [ W F Z Z Z Z D D Z Z C D F E ~ ^ ) _ ) E S V Z S s 4 J ",
"2.2.2.2.K E S h p h R ^ ^ ` ` ' ' ' _ _ ' _ ^ ^ ( ( ( _ _ { _  .O.@.} _ _ _ [ [ / F C Z D D F Z V Z D D C D F I ) ) ^ E E E S B z Z z i 0 ) ",
"2.2.2.2.H ) S V V W ^ ^ ` ' +.+.-.' #.#.' #.$.O.O.$.[ _ [ { O.@.@.@.O._ [ / W W F Z Z Z D D D Z Z Z D S D D I / ) ^ ) S H V A V Z Z g 8 0 $.",
"2.2.2.J J V E E ^ ^ ^ ` *.*.` ` ' ' ' ' O.@.O.O.' ' ) ) / ( ( ( _ _ _ ( / W D D F D D D Z Z Z V S S Z S F F / / ^ E K V E E K V Z z s 6 t %.",
"2.2.2.S K S ^ ' ` Q Q ' =.*.^ ^ ^ ^ ^ ^ ~ ( ^ ( ( ( ( ( / / ) / / W / ! W F F F D Z D Z Z Z D D D Z Z F W ~ / / W D V R E V D V Z c a < w 2.",
"2.2.2.w b E ' ` Q ^ ^ ' *.#.' ^ ^ ^ ^ ^ ~ ^ Q ^ ~ ^ ( _ ( ~ ^ ! ! ! / W D Z Z R Z Z Z Z Z Z D D Z Z S F ^ / ^ E E Z R R R V V E Z l a < y 2.",
"2.2.2.3 0 V ' ^ Q ^ ^ ` #.+.' ^ ^ Q ^ ^ ^ ^ ( / ^ / ^ / ! ! Q / / / W D Z Z Z c Z Z Z Z Z c Z c Z D F ! ^ ^ E E Z Z V R R R V E z l d 5 n 2.",
"2.2.2.- # g ( ( ^ ^ ^ ' ' ' ^ ^ ^ ^ ^ ^ ( ^ ^ / ( ( ~ ~ / / / / ! ! D Z D F Z Z Z Z Z Z Z Z Z Z Z F ! / / W D Z Z Z Z Z Z R c R z a a w Y 2.",
"2.2.2.= - g / ( ^ ) ^ _ _ _ ^ ^ ^ ^ ^ ^ ^ ^ / ( ( ^ ( ^ ^ ^ ^ / W D Z Z D Z Z Z Z Z Z Z Z F Z Z F ! ( / W F Z D Z Z D D Z Z D Z z a e w X.2.",
"2.2.2.- = g / ^ ^ ^ _ ^ _ ^ Q ^ ^ ( ( / ( ( ( ^ ^ ( ( ^ / ^ ^ W F Z Z Z D D D Z Z Z Z D Z Z Z W W ~ / / F Z F Z D Z Z Z Z Z D Z z i 0 d -.2.",
"2.2., - & f ) ^ ^ ^ ^ ^ ^ Q ~ ^ ^ ^ ^ ( ^ ^ ( ( ^ ~ / ^ / ^ ~ E Z Z Z Z D D D Z Z Z Z Z Z Z F / / ~ ! F F Z Z Z Z Z Z Z Z D D V z w 4 u >.2.",
"2.2.- - < l _ / ^ ) ' _ ( ! ! ! ^ ^ ^ ) ( ^ ^ ( ( ~ ~ ( ( ^ E Z Z Z Z Z Z Z D D Z Z Z F Z F W / / ~ F F Z Z F Z Z Z Z F Z R F Z a 6 , f 2.2.",
"2.2.= ; < l _ _ _ ' _ ' { ( ( / ^ ( ^ ( ( / ( ( ^ ^ ~ ^ ^ E Z Z Z F D Z Z D Z Z F Z Z Z F W / / / F F Z Z Z Z Z D Z Z Z D D F z a 4 1 N 2.2.",
"2.2.$ - - g ~ ~ W W ^ ` ` ( / ( ( ( ^ ( ( ^ ^ / ( ( ^ ^ E E Z Z D Z D Z Z Z Z F Z S Z Z W ( / ~ W Z Z Z Z Z Z S F Z Z Z V D Z l a 6 t | 2.2.",
"2.2.= - < s W ~ W ~ ^ ( ( / W Q ( ^ ( ( ^ ^ ^ / ^ ^ ^ E Z Z Z Z Z Z Z D Z Z F F Z Z Z F / / / W F Z Z Z F Z Z Z D Z Z Z Z Z C l d w M 2.2.2.",
"2.2.@ - 2 l ! / / ^ _ ^ ^ W W / ) ^ ) ^ / / / / ( W W E D D D D D Z S Z F Z Z Z Z Z F ~ / ~ F D F Z Z Z D D D Z Z Z D Z Z D C l e y | 2.2.2.",
"2.2.$ & < z ! / ^ / ^ ~ ~ ! / / ^ ( ^ / / / / ( ^ E D C R D D D Z Z Z D Z Z Z D Z Z W / / F F Z Z Z D Z Z D Z Z Z Z Z D D D C g w n ,.2.2.2.",
"2.2.- < 2 Z [ { _ _ _ ^ / / / / ( ~ / / / / / ~ W D Z Z D D D Z D Z Z Z Z Z Z Z D W / / W D Z Z Z Z Z Z F Z Z D D Z Z D D Z z i y T 2.2.2.2.",
"2.2.1 1 6 W { { ' ' ' ' _ ( W / / / / ( / / W W D Z Z Z D D D Z Z Z Z Z Z Z Z D F / / W Z Z D D D D D D D Z Z D Z Z Z D D Z z i v o.2.2.2.2.",
"2.w w 6 a W _ ( ^ ^ _ ' _ _ ( ( / ~ / ( / ~ W Z Z C Z D D D Z Z S Z Z Z Z Z D D W / / F Z Z Z D D D Z F Z D Z Z Z Z Z Z D C p i S 2.2.2.2.2.",
"2.w 6 4 l W / ~ ^ ^ ^ ^ ^ _ ( ( / / / / ~ W D D Z E D Z D V Z Z Z Z Z Z C D F W / F F Z Z D Z Z Z D D Z F Z F Z D Z Z Z Z l i s T 2.2.2.2.2.",
"2.1 > 2 C ! ! ( ^ ) ^ ^ ^ ^ ^ ( ( ( / ~ F F Z Z D D D D Z V D Z Z F D Z Z F ~ ~ ~ D Z Z D D Z Z Z Z Z F F Z Z F Z Z Z D Z l 8 Z :.2.2.2.2.2.",
"2.> # i W ! ! / ^ ^ ^ ^ ^ ^ ^ ) / ~ ~ W F Z C Z D D D D Z D D D Z Z Z Z F W / ~ F Z Z Z D Z Z D Z F Z Z Z Z F Z Z Z D D z s i Z 1.2.2.2.2.2.",
"2.# # g ^ ^ ^ ^ _ ^ ( ( / ! W ^ / W F F Z Z Z Z D D D Z Z D Z Z Z Z Z F W W / F D Z D D Z V Z Z D D D D D Z D Z Z Z Z C h p p B :.2.2.2.2.2.",
"$ # 4 K ^ ^ ^ ^ ^ ( ( ^ / / / / W W D Z Z F Z Z Z Z Z Z D D Z Z Z Z Z F / / F Z D D D Z D F Z Z Z Z Z Z D Z Z D C Z Z B s i 8 a T 2.2.2.2.2.",
"# 3 j ^ ^ ^ K ^ ^ ^ ^ ( ^ / ^ W F F Z Z Z F Z Z D D F Z Z Z Z F Z D F ~ / W Z C V D Z D D D D Z S Z Z F D Z Z C Z R D z i 8 8 6 n 2.2.2.2.2.",
"0 f K ^ _ ^ ^ ^ ` ^ ^ ( ^ ^ ~ E Z Z D Z Z Z D Z Z Z Z F Z Z Z Z D F / ~ W D D D Z D Z Z D Z Z Z D F S Z D Z R Z E W W Z g 8 6 8 a I 2.2.2.2.",
"t S ~ ^ _ ^ ^ _ ^ ^ ^ ^ / W E Z Z D Z D D D Z V Z C C D D D D Z F / / F Z Z Z F D Z Z Z Z D D D S D S D D F W W ~ ~ ^ ^ Z i 8 w e f 2.2.2.2.",
"2.i A ) ^ ^ ^ ^ ^ ^ ^ ^ ~ W Z Z D D D D D D D Z Z Z C Z D D D R / ( W Z V Z D Z D Z Z Z D D Z S D S D D F ~ ^ / / / ^ ( E B i 6 6 w T 2.2.2.",
"2.5 0 B K V E ^ ^ ^ Q Q F Z F Z Z D D D D D Z Z Z D D C C D W ~ ~ F D Z Z D Z Z Z Z D D D D C D D I I ~ ~ ~ ~ / ^ / ~ E S B 7 < 1 w M 2.2.2.",
"2.0 w S E K E ^ ^ ^ E E Z Z Z F Z D D D D D Z D V D D D Z W ~ / W Z C Z D D Z Z Z D D D Z Z D D I / / / / / / / / ( / W D D g 5 5 w f | 2.2.",
"2.y 6 a k s F ( ! ! F F Z Z Z Z D D D Z D Z Z D Z C C W W / ~ W F C Z D Z Z D D D D D Z S D W ~ / / / / / ( / ! / Q W E ~ / I S f 4 w J 2.2.",
"2.4 = & - 5 C / ! R Z Z Z Z Z Z D D D D D D D Z Z C D W / / W D Z Z Z Z Z Z Z D Z Z D Z D E ~ ( / ~ ~ ~ / / ! Q W E C C S D I D f ; , j 2.2.",
"2.w M k - w F ~ F Z c Z D F Z Z Z Z D Z D D Z Z Z F F / / ~ W C Z D D Z Z D D D Z Z D E ~ / / / / ~ ~ / ^ Q W D Z Z D D D I I S 6 % o 9 2.2.",
"2.2.<.Y 1 f ~ F Z Z Z Z Z D S Z Z Z D D Z Z Z D D W / / W D Z D D D Z Z D D Z V Z E E W ^ ^ / ~ ~ ) ( ~ W R D Z D W ^ ~ / / I d @ o = M 2.2.",
"2.2.1.n 4 b F Z Z Z Z Z Z Z S Z Z Z Z F D Z D D W ~ / ~ D D D D C Z Z Z E Z D Z D E ~ ^ ^ ^ ^ ^ / ~ W E R W W W ~ ^ / ~ ) ) i # o o j 2.2.2.",
"2.2.| 4 6 C Z Z Z c Z Z Z S D Z Z F Z Z Z Z Z W W / W F D R D Z Z Z Z E Z Z D E E ^ ^ ^ ~ ) ^ ^ / W D E W ! ! Q ^ ~ ~ ) ) s # . o q ] 2.2.2.",
"2.2.2.; e n S C Z Z Z Z D Z S Z Z F Z Z Z D F ! ~ ~ E Z D E D C Z Z Z Z R E E E ^ ^ ^ ^ ~ ~ ^ ~ W W W ~ ! / / ^ ~ ~ ( ( h @ @ + , T 2.2.2.2.",
"2.2.2.4 w l Z C c Z Z Z Z S Z D Z Z Z Z D F ! / ~ W D Z Z D D Z R Z Z Z D E ^ ^ ^ ^ ^ ^ ~ ~ ~ ~ E W ^ ^ / Q / ^ ^ ^ ( S 1 + @ = P 2.2.2.2.2.",
"2.2.2.4 4 l Z Z C Z c c c D F Z D Z Z D W W / / W F C Z Z Z Z R R Z Z D W ~ / ^ ^ / ^ ^ ^ ^ ~ ~ ~ / / / Q ! / ( _ ( / S 1 # # b <.2.2.2.2.2.",
"2.2.2.- 1 a C Z c c c c c Z Z D Z Z D D ! ( _ ~ F V Z D Z Z C D D D E W W ^ ^ ^ / / ^ ^ ^ ^ ~ ^ ^ ^ ! Q / ! ! ( / Q / Y g - < J 2.2.2.2.2.2.",
"2.2.2.= 4 a z Z F c c c C C Z F Z D F W / / ! F Z Z Z Z Z Z Z Z D R W ~ ^ ^ Q ^ ^ ~ ~ ^ ^ ^ ^ ~ / W W / / ( / W ^ / ~ ~ A < < f 2.2.2.2.2.2.",
"2.2.2.4 w 6 l Z c c Z F Z Z Z Z D D W / / / F D Z Z Z Z Z D Z D E ~ ^ ^ / / ( ( ^ ~ / / ^ ^ ~ ~ W ! W Q W Q Q Q ~ ( / ~ K w - w 2.2.2.2.2.2.",
"2.2.2.f w 6 a C Z F F Z Z F Z Z D W W ! ! ! Z Z F D F c Z R R W ~ ~ Q / ! / / ( / ~ W / ^ W ^ ~ ! / ^ ^ ^ ^ ! ( / [ / I ~ l & 1 U 2.2.2.2.2.",
"2.2.2.2.w w a B c c c C Z Z Z Z W ! ! ! W F Z C Z Z Z Z R R W W ^ Q ! ! / ! ! / ~ ^ ! / ^ ^ ^ ^ ( / ^ ^ / / ! ( ( / / / / n & = m 2.2.2.2.2.",
"2.2.2.2.q w a C Z C Z Z Z Z F F W ! [ ! F Z D C C Z C D W W Q ^ ! Q / / / ^ Q ^ / ( / / ~ E ^ ^ ( ( ( ^ / ! ( / / ( ~ / / S & & j 2.2.2.2.2.",
"2.2.2.2.w w i g l c Z Z S D F ! ! [ F F D Z D Z Z C Z F W ! / ^ / ^ ^ ^ ^ ~ ^ ^ ( ( ( / ~ ~ ^ ^ _ ( _ ^ ^ ^ ^ ^ / ! ~ ~ / D 5 - u 2.2.2.2.2.",
"2.2.2.2.u w 6 5 6 l c C Z F ~ / ( _ ~ D S F C Z Z D D I ) ( / ^ ^ ^ ^ ^ ~ ^ ^ ^ ^ W ^ ^ ) _ ) ^ ) ^ ^ ^ ^ ^ ( ( / _ ^ ^ ) K d - r 2.2.2.2.2.",
"2.2.2.2.2.w 6 e l Z Z F F ! ~ / / / F D S D S S S D Y ~ ^ ^ / / ^ ~ ^ W ~ ^ ^ ^ ^ ^ ^ ^ ^ ^ ^ ^ ^ ^ ^ ^ ( ` ^ / ^ ^ ^ ~ K K g # 9 ..2.2.2.2.",
"2.2.2.2.2.w 6 k C D Z F Q / / / / W F Z D F S F F ~ ~ ~ / / ~ W E E E K E E E ) ^ E W ~ ^ ~ E E ^ ^ ^ ^ ^ ^ ! Q E E E S S S A 0 9 L 2.2.2.2.",
"2.2.2.2.2.q 6 k C F D F ( / / ( W F D D Z Z F F ~ ~ / / ~ ~ W W E K W W E K E S Z D E W E E E E ^ ^ Q Q Q E W R D C S V S K B 3 > m 2.2.2.2.",
"2.2.2.2.2.e e e l Z D ! ! Q ! ( W Z Z D Z D W W / / / / ! W W W E ^ W Q ^ K E V D R W W W W W W E E E E R R c R D C D F E S f # O r 2.2.2.2.",
"2.2.2.2.2.n e 6 8 n F ! ( ! Q W R Z c R R W Q Q ! ! W ! ! ( W V B S K E S E E E Z c c x x c Z R S E V V Z R Z c Z V D C B g 3 + O 9 2.2.2.2.",
"2.2.2.2.2.2.6 ; 6 8 Z ! ! R ! W Z c V R W ! ! ` ! Q ! ! Q D h 7 0 i g b V Z B V Z c z z x c Z c V V V R Z Z Z Z V V z 6 5 w 5 @ $ L 2.2.2.2.",
"2.2.2.2.2.2.r ; ; 6 z Z Z W W c Z Z W Q ! ! ( ( ( / / W V 8 2 < 3 i i 0 b B B E Z C Z W R D D D E E Z Z Z Z F Z Z z a < & > w 0 u 2.2.2.2.2.",
"2.2.2.2.2.2.2.w & % 1 a l C z C C C V F D D ~ ^ ^ ^ ~ h 5 < * * 4 w 4 6 e e a g g l Z F D D D Z z C c c C Z c Z S 8 ; ; % 4 n | 2.2.2.2.2.2.",
"2.2.2.2.2.2.2.2.= = ; ; 4 a f a g g f g g g g S W D g 5 < < & 4 N S e 4 ; ; 0 0 w 6 w e f g k a 6 6 k l l n C n f < ; = 6 N  .2.2.2.2.2.2.2.",
"2.2.2.2.2.2.2.2.2.2.r 4 4 , - $ = , < 4 w w w g A j 0 3 4 = = b ;.,.M 9 , : - : 3 = % & 4 0 1 # % % 1 4 6 e k 8 , - , r P :.2.2.2.2.2.2.2.2.",
"2.2.2.2.2.2.2.2.2.2.2.2.y = o o X X = 1 4 3 0 q 3 > # > > = 4 T 2.2.2.2.2.= X $ = : = - 4 0 > @ o o @ @ % ; , 6 q 4 y U 2.2.2.2.2.2.2.2.2.2.",
"2.2.2.2.2.2.2.2.2.2.2.2.2.2.2.r , : q y , X   X   X = : = = u 2.2.2.2.2.2.2.2.H H J J j t 9 > $ o o X X X % , r u N ..2.2.2.2.2.2.2.2.2.2.2.",
"2.2.2.2.2.2.2.2.2.2.2.2.2.2.2.2.2.2.2.2.2.2.2.2.2.2.2.2.2.2.2.2.2.2.2.2.2.2.2.2.2.2.2.2.2.2.2.2.2.2.2.2.2.2.2.2.2.2.2.2.2.2.2.2.2.2.2.2.2.2."
};
