/* XPM */
static char *result[] = {
/* columns rows colors chars-per-pixel */
"70 70 22 1 ",
"  c #8DC435",
". c #88BF30",
"X c #82B92A",
"o c #8CC334",
"O c #86BD2E",
"+ c #83BA2B",
"@ c #8BC233",
"# c #85BC2D",
"$ c #84BB2C",
"% c #87BE2F",
"& c #89C031",
"* c #8AC132",
"= c #7BB223",
"- c #78AF20",
"; c #79B021",
": c #7AB122",
"> c #7CB324",
", c #7EB526",
"< c #7FB627",
"1 c #80B728",
"2 c #81B829",
"3 c white",
/* pixels */
"                                                        .             ",
"                                                        X.   oO       ",
"                                                        ++@  #.       ",
"                                                        $$$@%$.       ",
"                  @o                                    ######@       ",
"                   O                                    OOOOOO@       ",
"&                  #&                                   ......@*&     ",
"@                  %#@                               o  &&&&&&&&@     ",
"                   &OOo  @.                          ***********      ",
"                   @OO% *OO                          o@@@@@@@@@o      ",
"                   o%%%%%%%o *.                       ooooooooo       ",
"                 o  .......*..*                                       ",
"                 @&&&&&&&&&&&&@                                       ",
"                 o************o@o     *                               ",
"                  o@@@@@@@@@@@@@o     %#    **                        ",
"                                      .+.  @+o                        ",
"                                      .$$&o#$                         ",
"                                      &###O#O                         ",
"                                      &OOOOO%                         ",
"     o                                *%%%%%&o@@                     o",
"     o.                               @&&&&&&&&o                     o",
"      +*                           o*@********@                       ",
"      O$o                           @@@@@@@@@@o                       ",
"      &#O   o&                      oooooooooo                        ",
"      *OO. @%O                                                        ",
"      @%%%&%%%  o*                                                    ",
"       .......o*.*                                                    ",
"    **@&&&&&&&&&&@                                                  **",
"    o************ooo                                                o*",
"     @@@@@@@@@@@@@@o                                                 @",
"     oooooooooooooo                                                  o",
"                                                                      ",
"                                                                      ",
"                                                                      ",
"                                                                      ",
"                                                                      ",
"                                                                      ",
"          *                                         .                 ",
"    .    .$                                         =O              . ",
"    #&  @+#                                         $-@             #&",
"    O$@@$$O                                         *-X             O$",
"    &#####%                                          ;:@            &#",
"    &OOOOO%                                          ==O            &O",
" o*@@%%%%%.                                          >>X         o*@@%",
"  ........&                                         *,,<          ....",
"  o********@*@                                  ..o .111O11.      o***",
"   @@@@@@@@@@o                                  %2X*#22222X        @@@",
"   oooooooooo                 .                 @+++++++++.        ooo",
"                             %.                  O$$$$$$$$o           ",
"                            *$*           **     &OOOOOOO%            ",
"                      oo   @##o     .*   *X*     o.......*            ",
"                      *O@ o%OO      *+o o$+*      @&&&&&&o            ",
"                  o@  *%%*.%%.      @$#@#$$*       oooooo             ",
"                  o.* &......*       ######@                          ",
"                   &&&&&&&&&&@o*o    OOOOOO@                          ",
"                 o *************  **@......@                          ",
"                 @@@@@@@@@@@@@@o  o&&&&&&&&o oo                       ",
"                 o@@@@@@@@@@@@@    @**********                        ",
"                                   o@@@@@@@@@@                        ",
"                                    oooooooooo                        ",
"                                                                      ",
"                                                                      ",
"                                                                      ",
"                                                                      ",
"         .                                                            ",
"   %o   .X                                                            ",
"   .#  @++                                                            ",
"   &$%@$$$                                                            ",
"   @######                                    o@                   .OO",
"   @OOOOOO                                    O                    .11"
};
