/* XPM */
static char *_4b1e6bfbfcd428e8989a71a87f06ec4mPdEjjn9MmvYM6OH[] = {
/* columns rows colors chars-per-pixel */
"70 70 226 2 ",
"   c #2C0202",
".  c #280505",
"X  c #340102",
"o  c #3C0102",
"O  c #35010A",
"+  c #3C0109",
"@  c #38080A",
"#  c #2C1513",
"$  c #351818",
"%  c #2B1009",
"&  c #3E2224",
"*  c #420103",
"=  c #4B0102",
"-  c #430109",
";  c #46050A",
":  c #530100",
">  c #5C0201",
",  c #530805",
"<  c #450010",
"1  c #6E0302",
"2  c #630100",
"3  c #740200",
"4  c #7C0306",
"5  c #6D160D",
"6  c #493737",
"7  c #562A29",
"8  c #7B3334",
"9  c #743234",
"0  c #672F30",
"q  c #77473B",
"w  c #543E40",
"e  c #5B4747",
"r  c #67585A",
"t  c #6E4C4D",
"y  c #756666",
"u  c #7A7674",
"i  c #840102",
"p  c #8B0005",
"a  c #9D0201",
"s  c #970408",
"d  c #8B1D1D",
"f  c #8F1114",
"g  c #971819",
"h  c #870311",
"j  c #A50203",
"k  c #AB0203",
"l  c #AA020A",
"z  c #A90909",
"x  c #B40102",
"c  c #BB0202",
"v  c #B6060A",
"b  c #A70D10",
"n  c #BA1819",
"m  c #8B211C",
"M  c #86231D",
"N  c #85200E",
"B  c #891C24",
"V  c #961B22",
"C  c #8C2123",
"Z  c #882329",
"A  c #942127",
"S  c #88332D",
"D  c #852D33",
"F  c #813132",
"G  c #BC292E",
"H  c #B73A37",
"J  c #B02C31",
"K  c #C30102",
"L  c #CC0203",
"P  c #CA010A",
"I  c #C8060B",
"U  c #D40103",
"Y  c #DB0102",
"T  c #D5040A",
"R  c #DB040A",
"E  c #D10F0D",
"W  c #DA0212",
"Q  c #C11814",
"!  c #C80B12",
"~  c #E30202",
"^  c #ED0101",
"/  c #E6010A",
"(  c #EB020A",
")  c #EC0807",
"_  c #F50102",
"`  c #FD0003",
"'  c #FC0904",
"]  c #F50209",
"[  c #FD010A",
"{  c #F80A0A",
"}  c #FB0211",
"|  c #FB0914",
" . c #FC1416",
".. c #ED0713",
"X. c #D40822",
"o. c #F51D27",
"O. c #C12125",
"+. c #F43E38",
"@. c #F8272C",
"#. c #83573E",
"$. c #FA453C",
"%. c #8B3F43",
"&. c #F73845",
"*. c #8C4A48",
"=. c #89594E",
"-. c #B74748",
";. c #AF5955",
":. c #8A6257",
">. c #877A7B",
",. c #95746A",
"<. c #BA7A76",
"1. c #AF6D6D",
"2. c #C15656",
"3. c #FF4143",
"4. c #FB4749",
"5. c #F85152",
"6. c #C96158",
"7. c #FF5D65",
"8. c #C27970",
"9. c #FA6967",
"0. c #F67679",
"q. c #8D807F",
"w. c #C9867E",
"e. c #887F82",
"r. c #C67A84",
"t. c #FF6F81",
"y. c #988887",
"u. c #9C8D94",
"i. c #9C9595",
"p. c #8D8B88",
"a. c #A69898",
"s. c #BD9393",
"d. c #B49698",
"f. c #B28E88",
"g. c #A2A29D",
"h. c #B7A09A",
"j. c #A8A7A6",
"k. c #B7A9A7",
"l. c #BBB3AD",
"z. c #BEBBBC",
"x. c #B9B7B4",
"c. c #C9898A",
"v. c #C09495",
"b. c #C39C9A",
"n. c #F68C8C",
"m. c #C7A8A8",
"M. c #D4AAA8",
"N. c #C6B8B4",
"B. c #D2BBBB",
"V. c #D9B8B9",
"C. c #F8A5A5",
"Z. c #F7B1AD",
"A. c #E6B3B2",
"S. c #FFBBB8",
"D. c #FCABB2",
"F. c #BDC4BD",
"G. c #CBC3BE",
"H. c #D7C4BC",
"J. c #FCC6BA",
"K. c #E6C5BC",
"L. c #BCBECB",
"P. c #E6BFC2",
"I. c #BEC8C0",
"U. c #CACAC7",
"Y. c #D7C7C6",
"T. c #CED8D2",
"R. c #D4D6D5",
"E. c #D3D7D8",
"W. c #D5D9DA",
"Q. c #D9DAD6",
"!. c #D5D0CA",
"~. c #E3C3C3",
"^. c #E6C8C6",
"/. c #F9C9C7",
"(. c #F9D6CC",
"). c #E6CBD4",
"_. c #E9D5D6",
"`. c #F4D4D4",
"'. c #FDD5D5",
"]. c #F5DAD5",
"[. c #FCDBD5",
"{. c #FDD6DA",
"}. c #F5DCDA",
"|. c #FEDCDC",
" X c #F4D7DB",
".X c #F2D0D1",
"XX c #E1E1DE",
"oX c #FDE1DE",
"OX c #F9E1D7",
"+X c #FFD7E3",
"@X c #FEDCE2",
"#X c #FADDE5",
"$X c #DEE5E6",
"%X c #E4E5E5",
"&X c #E5EBEC",
"*X c #ECEDED",
"=X c #E6EAE7",
"-X c #FEE1E2",
";X c #F3EDED",
":X c #FDEEED",
">X c #F4E2E5",
",X c #EDF3ED",
"<X c #EDF8EE",
"1X c #E6F1ED",
"2X c #F3F3EF",
"3X c #F9F2EE",
"4X c #F3F7EA",
"5X c #ECEAF0",
"6X c #E9EAF5",
"7X c #F3EEF2",
"8X c #F9EEF5",
"9X c #FDEDFC",
"0X c #F3EBFA",
"qX c #EDF4F3",
"wX c #EDFBF5",
"eX c #EEFBFB",
"rX c #E8F7FB",
"tX c #F6F6F6",
"yX c #FAF5F5",
"uX c #F4F9F4",
"iX c #FAFAF5",
"pX c #F5F5FA",
"aX c #FCF5FB",
"sX c #F5FAFA",
"dX c #F9F9F9",
"fX c #FBFAFB",
/* pixels */
"tXtXtXtXtXtXtXtXtXtXtXtXtXtXtXtXtXtXtXtXtXtXtXtXdXyXtXuXuXtXyXiXpXfX;XyXdXtX8XuXtXtXtXyXyXtXtXtXtXtXtXtXtXtXtXtXtXtXtXtXtXtXtXtXtXtXtXtXtXtX",
"tXtXtXtXtXtXtXtXtXtXtXtXtXtXtXtXtXtXtXtXtXtXtXtXtXuXuXtXaXaXpXdXdX<XsXyXtXrXsX7XtXdXtXtXdXtXtXsXtXtXtXtXtXtXtXtXtXtXtXtXtXtXtXtXtXtXtXtXtXtX",
"tXtXtXtXtXtXtXtXtXtXtXtXtXtXtXtXtXtXtXtXtXtXtXtXtXtXuXuXtX7XpXeXdXtXtXuXtXaXuXsXuXuXtXtXtXtXdXtXtXtXtXtXtXtXtXtXtXtXtXtXtXtXtXtXtXtXtXtXtXtX",
"tXtXtXtXtXtXtXtXtXtXtXtXtXtXtXtXtXtXtXtXtXtXtXtXsXtX3XyXuXsXiX:XpXsX7X=XiXyXuX3XfXtXqXdXfXtX*XtXtXtXtXtXtXtXtXtXtXtXtXtXtXtXtXtXtXtXtXtXtXtX",
"tXtXtXtXtXtXtXtXtXtXtXtXtXtXtXtXtXtXtXtXtXtXtXtXqXfXfXqXpXaXyXiX4Xx.y r g.>XyXwXtXtXdXtXtXtXsXtXtXtXtXtXtXtXtXtXtXtXtXtXtXtXtXtXtXtXtXtXtXtX",
"tXtXtXtXtXtXtXtXtXtXtXtXtXtXtXtXtXtXtXtXtXtXtXtXdX*XpXsXrXfXtXI.=.J c.x.k.u j.0XfXtXtXtXdXdXtXtXtXtXtXtXtXtXtXtXtXtXtXtXtXtXtXtXtXtXtXtXtXtX",
"tXtXtXtXtXtXtXtXtXtXtXtXtXtXtXtXtXtXtXtXtXtXtXtXyXsXuXaXaXU.,.g X.n.^.B.>X^.d.>.z.7XfX;XtXdXtXdXtXtXtXtXtXtXtXtXtXtXtXtXtXtXtXtXtXtXtXtXtXtX",
"tXtXtXtXtXtXtXtXtXtXtXtXtXtXtXtXtXtXtXtXtXtXtXtXyXtXsXT.,.V U ' 0.OX~.V.}.'.[.^.u.e.z.aXdXtXfXtXtXtXtXtXtXtXtXtXtXtXtXtXtXtXtXtXtXtXtXtXtXtX",
"tXtXtXtXtXtXtXtXuXaXaXpXqXtXdXsX9XdXuXuXpXeXwX3XfX_.y.A T ` ' 9.{.#XY.V.[.|.'.@X|.V.y.p.U.sXdXpXtXtXdXyXtXtXiXuXtXdXdXtXtXtXtXtXtXtXtXtXtXtX",
"tXtXtXtXtXtXtXtXiX7XtXsXuXyXyXuXuX<XdXaXtXtXdX6Xi.S L ) ` [ 7.'.'.|.Y.B.|.}.}.}.'.|.|.B.y.u.Q.fXdXdXuXtXtXtXtXyXdXtXtXtXdXtXtXtXtXtXtXtXtXtX",
"tXtXtXtXtXtXtXtXqXfXdXtXyXyX:XtXwXtXtXtXaXtXm.%.v [ _ ' _ 5./.#XOX[.K.V.@X@X-X[.oX[.'.{.{.m.q.i.XXtXdXuXtXtXtXyXtXtXtXdXtXtXtXdXtXtXtXtXtXtX",
"tXtXtXtXtXtXtXtXsXtXyXyXuXqXeXsXaXpXdXuXx.=.b ~ ` ` [ _ 4.J.`.[.[.oX~.N.oX'.'.].].|.{.|.|.|._.k.>.j.XXfXsXtXtXdXdXdXdXtXtXtXdXtXtXtXtXtXtXtX",
"tXtXtXtXtXtXtXtX8XyXtXuXsXsXtXtXsXaXU.:.g ~ ` ` ` ' [ 3.J.}.@X'.'.@X).B.oX[.|.+X|.'.|.|.`.[.[.[._.a.>.k.&XfXdXtXtXtXtXdXtXtXtXtXtXtXtXtXtXtX",
"tXtXtXtXtXtXtXtXaXuXuXyX8XpXdXiX!.,.g Y ` [ ` ` ` ^ +.J.{.|.{.>X#XV.1.1.A.].}.@X|.|.`.|.|.[.|.|.@X|.^.a.>.x.2XfXfXdXtXtXdXtXtXtXtXtXtXtXtXtX",
"tXtXtXtXtXtXtXtXpX,XtXtXqXsXQ.,.d P ` ' ` ` [ _ ` 3./.#X@X'.[.^.f.H R / O.<.H.[.|.|.|.[.|.|.`.|.'.|.|. X^.y.>.N.tXdXtXtXdXdXtXtXtXtXtXtXtXtX",
"tXtXtXtXtXtXtXtXpXfXyXaX=Xy.Z ! _ ` ` ` ` ` ` _ +.S.+X[.[.).b.H ~ ] ` ` ` ~ G r.^.|.|.{.{.|.|.|.[.'.|.|.|.}.Y.y.p.U.dXdXtXtXtXtXtXtXtXtXtXtX",
"fX,XaXaX<X2XtXyXuXfX&Xd.S x ^ ' ` ` ' ` ` [ ..$./.'.oX_.m.-.I ` ` ` ` ` ` ` _ _ H c.^.|.'.[.[.{.#X{.|.|.[.[.|.].B.>.i.R.aXsXdXuXtXtXtXtXdXtX",
"7XiXtX5XfX,XsXfXtXk.*.v ^ [ ` ` _ ` [ } [ ` 3.J.|.}.M.;.Q _ [ [ ` ` ` ` ` ` ` _ [ R H b. X+X'.|.'.[.|.|.@X|.}.{.{.}.N.>.a.Q.yXfXdXdXtXtXdXtX",
"aX,XdXtXtXfXqXN.*.b Y [ [ [ ` ` ` ` ` ` _ 5./.#XV.;.n ( ` ` ` ` ` ` ` ` ` ` ` ` _ ' _ W -.M. X#X[.[.'.].[.|.|.{.|.oX].'.k.u g.=XtXdXtXtXtXtX",
"yX<XfXfXtXtXy 5 ~ ) { ` _ ^ _ [ ` [ ` ' 7..X~.1.n R ` ` _ _ [ ` ` ` ` ` ` ` ` ` [ ` _ _ _ E 6.M. X#X-XoX[.|.|.|.'.[.[.'.oX).i.r =XtXtXtXtXtX",
"dXuXtXtXuX*X0 k k Y ` ` _ ' ` ` [ ' { 0.P.f.H / ` ` ` [ ` _ ` [ ` ` ` ` ` ` ` ` ` [ [ ` ' ` ] Q <.A.|.{.|.|.`.|.|.|.}.|.`.B.k.t R.tXtXtXtXdX",
"sXuXtXdXuX&XF ^ Y k l W ` ` ` ` ' o.n.c.H T _ ` { ` ` ` ' ` ` ` ` ` ` ` ` ` ` ` _ ` ` ` ` ` _ ' / O.8.~.{.+X@X}.|.'. XG.m.^.D.D R.dXtXtXtXtX",
"tXdXdXtXuX&XF _ [ } U j z R ` ' o.6.-.T ` ' ` ` [ [ ' ` ` [ ` ` ` ` ` ` ` ` ` ` ` _ ` ` ' { ` ` ` ` R G w.^.{.@X`.~.m.G.[.(.t.m R.dXtXtXtXtX",
"aXuXuXtXdX6X8 ^ ` ` ` ` U k k v J E ^ ` _ ` ` ` ' ` ` [ [ ` ` { ` ` ` ` ` ` ` ` ` ` [ [ ` ` ` [ _ ` ` ` T H c.B.m.G.{.@X'.(.&.N R.dXtXdXdXtX",
"tXuXpXtXtX*XF ^ ` [ ` ` ` _ U j ` ` ` ` ` ` ` ` ` ` ` ` ` ` ` ` ` ` ` ` ` ` ` ` ` ` ` ` ` ` ` ` ` ` ` ` ` _ L f.`.@X@X[.[.C. .B W.sXtXtXtXtX",
"tXuXpXtXtX*XF ^ ` [ ` ` ` ` c l ` ` ` ` ` ` ` ` ` ` ` ` ` ` ` ` ` ` ` ` ` ` ` ` ` ` ` ` ` ` ` ` ` ` ` ` ` _ T s.[.@X|.'.OX0._ B W.sXtXtXtXtX",
"tXuXpXtXtX*XF ^ ` [ ` ` ` ` a k ` ` ` ` ` ` ` ` ` ` ` ` ` ` ` ` ` ` ` ` ` ` ` ` ` ` ` ` ` ` ` ` ` ` ` ` ` ` T s.|.|.[.{.(.&._ C W.sXtXtXtXtX",
"tXuXpXtXtX*XF ^ ` [ ` ` ` [ 3 k ` ` ` ` ` ` ` ` ` ` ` ` ` ` ` ` ` ` ` ` ` ` ` ` ` ` ` ` ` ` ` ` ` ` ` ` ` ` T v.[.|.[.+XZ. .` C W.sXtXtXtXtX",
"tXuXdXtXtX*XF ^ ` ` ` ` ` ( : j ` ` ` ` ` ` ` ` ` ` ` ` ` ` ` ` ` ` ` ` ` ` ` ` ` ` ` ` ` ` ` ` ` ` ` ` ` ` T v.}.|.[.#X0.` _ m W.sXtXtXtXtX",
"tXuXpXtXtX*XF ^ ` _ ` ` ` P * j ` ` ` ` ` ` ` ` ` ` ` ` ` ` ` ` ` ` ` ` ` ` ` ` ` ` ` ` ` ` ` ` ` ` ` ` ` ` R v.oX'.[.`.&.` _ C W.sXtXtXtXtX",
"tXuXdXtXtX*XF ^ ` _ ` ` ` j o k ` ` ` ` ` ` ` ` ` ` ` ` ` ` ` ` ` ` ` ` ` ` ` ` ` ` ` ` ` ` ` ` ` ` ` ` ` ` R v.-X'.@XZ. .` ` C W.sXtXtXtXtX",
"tXuXdXtXtX*XF ^ ` _ ` ` _ i O j ` ` ` ` ` ` ` ` ` ` ` ` ` ` ` ` ` ` ` ` ` ` ` ` ` ` ` ` ` ` ` ` ` ` ` ` ` ` T s.|.[.-Xn.` ` ` B W.sXtXtXtXtX",
"tXtXdXuXyX5X8 ^ ` ` ` [ Y > O j ` ` ` ` ` ` ` ` ` ` ` ` ` ` ` ` ` ` ` ` ` ` ` ` ` ` ` ` ` ` ` ` ` ` ` ` ` ` T v.[.OX'.4.` ` ` m R.sXtXtXtXtX",
"tXtXdXuXyX5X8 ^ ` ` ` [ c = o j ` ` ` ` ` ` ` ` ` ` ` ` ` ` ` ` ` ` ` ` ` ` ` ` ` ` ` ` ` ` ` ` ` ` ` ` ` ` T v.|.|.J.@.` ` ` M R.sXtXtXtXtX",
"tXtXdXuXyX5X8 ^ ` ` ` ` i + X j ` ` ` ` ` ` ` ` ` ` ` ` ` ` ` ` ` ` ` ` ` ` ` ` ` ` ` ` ` ` ` ` ` ` ` ` ` ` T v.|.@Xn.` ` ` ` B R.sXtXtXtXtX",
"tXtXdXuXyX5X8 ^ ` ` ` ( > O o j ` ` ` ` ` ` ` ` ` ` ` ` ` ` ` ` ` ` ` ` ` ` ` ` ` ` ` ` ` ` ` ` ` ` ` ` ` ` T v.|.}.9.` ` _ ' B R.sXtXtXtXtX",
"tXtXdXuXyX5X8 ^ ` ` ` P * O o k ` ` ` ` ` ` ` ` ` ` ` ` ` ` ` ` ` ` ` ` ` ` ` ` ` ` ` ` ` ` ` ` ` ` ` ` ` ` T v.|./.@.` [ _ ` B R.sXtXtXtXtX",
"tXtXdXuXyX5X8 ^ ` ` ^ s o + o k ` ` ` ` ` ` ` ` ` ` ` ` ` ` ` ` ` ` ` ` ` ` ` ` ` ` ` ` ` ` ` ` ` ` ` ` ` ` T v.-XC.| ' ` ` ` V R.sXtXtXtXtX",
"tXtXdXuXyX5X8 ^ ` ` Y > o - X k ` ` ` ` ` ` ` ` ` ` ` ` ` ` ` ` ` ` ` ` ` ` ` ` ` ` ` ` ` ` ` ` ` ` ` ` ` ` T v.|.9.[ ` ` ` ` V R.sXtXtXtXtX",
"tXtXdXuXyX*X8 ^ ` ` L o o * X k ` ` ` ` ` ` ` ` ` ` ` ` ` ` ` ` ` ` ` ` ` ` ` ` ` ` ` ` ` ` ` ` ` ` ` ` ` ` T v.'.&.` ` ` ` _ d R.sXtXtXtXtX",
"tXtXaXtXuX&X8 ^ ` ` i O X = X l _ ` ` ` ` ` ` ` ` ` ` ` ` ` ` ` ` ` ` ` ` ` ` ` ` ` ` ` ` ` ` ` ] ` ` ` [ ` T v.S. .` ` ` ` ` C E.sXtXtXtXtX",
"tXtXdXtXuX&XF ^ ` ~ 2 O o * o j ` [ [ ` ` _ _ ` ` ` ` ` ` ` ` ` ` ` ` ` ` ` ` ` ` ` ` ` ` ` ` ` [ ` _ ` ` ` I b.n.] ` ` [ ' ` B E.sXtXtXtXtX",
"tXuXyXtXuX*XF _ ` x o o * o o j [ ` _ ^ ` ` ` ` ` ` ` ` ` ` ` ` ` ` ` ` ` ` ` ` ` ` ` ` ` ` ` ` _ [ ' ` _ ` R s.5.` _ ` ` _ _ C E.sXtXtXtXtX",
"yXuXdXtXuX*XF _ [ i X + * o o k ` ` ` [ [ ` ` ` ` ` ` ` ` ` ` ` ` ` ` ` ` ` ` ` ` ` ` ` ` ` ` ` ` ` ` [ [ ` R <.@.` ` ` [ ` ` g E.sXtXtXtXtX",
"yXuXdXtXtX&XF _ U : o - o + X l ' ` _ ` ` ` _ ` ` ` ` ` ` ` ` ` ` ` ` ` ` ` ` ` ` ` ` ` ` ` ` ` _ [ ` ` ` ` R 2.| ` ` _ ` ` ` d E.sXtXtXtXtX",
"yXuXdXtXtX*X8 ( j * - o o O X i ~ [ ` ` _ ` ` ` ` ` ` ` ` ` ` ` ` ` ` ` ` ` ` ` ` ` ` ` ` ` ` ` { [ ` ` ` ) k f ( ` [ [ ` ` _ M E.sXtXtXtXtX",
"tXuXdXtXtX5X8 Y 1 * o o o X X : > l } [ ` ` ` ` ` ` ` ` ` ` ` ` ` ` ` ` ` ` ` ` ` ` ` ` ` ` ` ` [ [ ` { x 3 i P j K / ` ` ` _ g E.sXtXtXtXtX",
"tXuXdXtXyX5X9 L * *   X o X * O + o 1 K ] [ _ ` ` ` ` ` ` ` ` ` ` ` ` ` ` ` ` ` ` ` ` ` ` ` ` ` ' _ L 3 o h / ` } K k L _ [ _ m E.sXtXtXtXtX",
"qXfX;XqXeX;X8 4   X X o o - + o * * X o 4 P _ ' _ ` ` ` ` ` ` ` ` ` _ ` ` ` ` [ ` ` ` ` ` ` ` ` L 4 o * a _ ` [ ` [ _ K j U ..d R.tXtXtXdXtX",
"eXtXyXtXsX;X7 = X ; X X ; o + - o o + + o * i T ` ` ` ` [ } ` ` ` ` ` ` ` ` ` ^ ` ` _ ` ` _ U i =   * l [ ` ` _ [ _ ^ [ / c z 5 Q.tXtXtXtXtX",
"sX2XyXiXtXtXy % X o ; + o - - o o o + - - o * : a Y ` ' ` _ ` [ ` _ ` ` ` ` ` _ ` ` ` ' ( j = o < = j _ ` ` _ ` _ ` ' ` [ ^ s r =XtXtXtXtXtX",
"dXuXtXtXtXfXtXx.t %   + o * o * o = = + + ; -   + , a ^ ' ' ` ` ] ` ` ` [ ] ^ ` _ [ ( j > X X ; : v [ ` _ _ ` ` ' _ ` _ c %.k.7XtXdXtXdXtXtX",
"tXtXsXqXdXtXfXsX&Xj.w . X o o o * * + o X X o ; O * o > k _ ` ` ` ` ` ` _ _ ` ` ] x > X + * * = c [ ` _ [ [ ` ' ` _ c F a.$XuXsXtXtXtXtXtXtX",
"fXtXuXuXuXtX7XyXsXfX=Xi.6 . X o * X X * * * o o + * * X . > c _ ' ` ` ` ' ' _ I 3 * X @ - X : v ` ` [ ` ` ` ` ` U Z u.$XuXfXtXyXtXtXtXtXtXtX",
"2XtXsXfXtXtXfXyX7XtXsXuXXXy.&   O o * * o * ; o X X o * + O = 1 c / ] [ ` K 1 *   o o o   > P _ [ ` _ ` [ ] W m ,.R.fXyXtXtXsXqXtXtXtXtXtXtX",
"uXtXtXtXdXtX2XiXiXyXtXfXtXaX_.>.$ X X + + o + o * * - + * * o X * i L U i o O - + - - o > v _ ` _ ` ` ` Y g ,.!.tXsXpXwXiX9XpXyXtXtXdXtXtXtX",
"tXtXtXtXtXtXtXtXtXtXtXtXtXtXdXdXT.y $ O o o o o * * + o O o o * + o o o o o X = o X X = x ` ` ` ` ` ~ b :.F.sXaXtXtXtXtXtXtXtXtXtXtXtXtXtXtX",
"tXtXtXtXtXtXtXtXtXtXtXtXtXtXtXtXtXdXG.r # O + o @ o o * * - - o o * X   * * - * - ; : x [ ` ` _ ^ z *.x.rXfXyXyXtXtXtXtXtXtXtXtXtXtXtXtXtXtX",
"tXtXtXtXtXtXtXtXtXtXtXtXtXtXtXtXtXtXfXuXl.e @ O o o * * * o + + o * X o o X o X * o l [ ` ` / v q h.,XsXpXtXpXqXtXtXtXtXtXtXtXtXtXtXtXtXtXtX",
"tXtXtXtXtXtXtXtXtXtXtXtXtXtXtXtXaXyXtXtXdXtXj.6 O O o o o o + + * - X X O + = o * s ^ ` ` K S f.0XaXiX4X<XsXfXaXtXtXtXtXtXtXtXtXtXtXtXtXtXtX",
"tXtXtXtXtXtXtXtXtXtXtXtXtXtXtXtXtXtXdXaXtXuXsX1Xu.6   o * o o o o * o   @ * o o p ) ' U A y.%XuX8XaXyXyXyXdX2X2XtXtXtXtXtXtXtXtXtXtXtXtXtXtX",
"tXtXtXtXtXtXtXtXtXtXtXtXtXtXtXtXtXsXuXtXdXtX7XtXsX%Xp.&   o * * X * o   - X o p ) U g ,.R.aXaXeX<XpXpXpXaXyXyXdXtXtXtXtXtXtXtXtXtXtXtXtXtXtX",
"tXtXtXtXtXtXtXtXtXtXtXtXtXtXtXtXuXsXsXqXtXdXyXtXiXqXsXQ.u $ X o o - O O * o 1 X.b :.U.sXsXiXqXaXdXtXpXaXyXtXwXrXtXtXtXtXtXtXtXtXtXtXtXtXtXtX",
"tXtXtXtXtXtXtXtXtXtXtXtXtXtXtXtXdX2XtXdXtXtXsXuXyXiXtXfXfXU.y #   o X X o = 5 #.L.tXfX3XyXpXtXiXdXyXyXuXwXeXyX:XtXtXtXtXtXtXtXtXtXtXtXtXtXtX",
"tXtXtXtXtXtXtXtXtXtXtXtXtXtXtXtXtXtXtXtXtXtXtXtXtXtXdXtXtXfX*Xz.t # . . % e l.7XtXtXtXtXtXtXtXtXtXtXtXtXtXtXtXtXtXtXtXtXtXtXtXtXtXtXtXtXtXtX",
"tXtXtXtXtXtXtXtXtXtXtXtXtXtXtXtXtXtXtXtXtXtXtXtXfXtXtXdXtXtXdXdX;Xl.e 6 a.tXfXsXtXtXtXtXtXtXtXtXtXtXtXtXtXtXtXtXtXtXtXtXtXtXtXtXtXtXtXtXtXtX",
"tXtXtXtXtXtXtXtXtXtXtXtXtXtXtXtXtXtXtXtXtXtXtXtXtXtXtXdXtXtXtXtXsXsXtX*XuXuXqXrXtXtXtXtXtXtXtXtXtXtXtXtXtXtXtXtXtXtXtXtXtXtXtXtXtXtXtXtXtXtX",
"tXtXtXtXtXtXtXtXtXtXtXtXtXtXtXtXtXtXtXtXtXtXtXtXtXtXtXtXtXdXtXtXpXtXtXtXsXdXdXtXtXtXtXtXtXtXtXtXtXtXtXtXtXtXtXtXtXtXtXtXtXtXtXtXtXtXtXtXtXtX",
"tXtXtXtXtXtXtXtXtXtXtXtXtXtXtXtXtXtXtXtXtXtXtXtXtXtXtXtXdXtXtXdXyXfXtX*XtXyXyXyXtXtXtXtXtXtXtXtXtXtXtXtXtXtXtXtXtXtXtXtXtXtXtXtXtXtXtXtXtXtX",
"tXtXtXtXtXtXtXtXtXtXtXtXtXtXtXtXtXtXtXtXtXtXtXtXtXtXtXdXtXtXtXtXtX*XtXfXuXtXiXiXtXtXtXtXtXtXtXtXtXtXtXtXtXtXtXtXtXtXtXtXtXtXtXtXtXtXtXtXtXtX"
};
