/* XPM */
static char *rock1695319579[] = {
/* columns rows colors chars-per-pixel */
"70 70 195 2 ",
"   c #070616",
".  c #080717",
"X  c #05051B",
"o  c #09071D",
"O  c #07091B",
"+  c #0D0C1B",
"@  c #100F1F",
"#  c #0F121F",
"$  c #10121F",
"%  c #0D0C22",
"&  c #100E24",
"*  c #0F1224",
"=  c #111324",
"-  c #161825",
";  c #141429",
":  c #18162C",
">  c #1B1B2C",
",  c #191A27",
"<  c #1E1C31",
"1  c #201E34",
"2  c #1F212F",
"3  c #232433",
"4  c #262835",
"5  c #282A37",
"6  c #2A2C3A",
"7  c #29273C",
"8  c #2F313E",
"9  c #30323F",
"0  c #2E2C41",
"q  c #302E43",
"w  c #2F3140",
"e  c #333543",
"r  c #3B3D4B",
"t  c #383A47",
"y  c #3E404D",
"u  c #454754",
"i  c #474956",
"p  c #4C4E5B",
"a  c #484A57",
"s  c #4F515E",
"d  c #55565F",
"f  c #46474C",
"g  c #6C685C",
"h  c #746D5B",
"j  c #77705E",
"k  c #79745E",
"l  c #575966",
"z  c #726D61",
"x  c #767264",
"c  c #7B7562",
"v  c #7F7966",
"b  c #7C776A",
"n  c #7E796C",
"m  c #6C6D72",
"M  c #74757A",
"N  c #837A67",
"B  c #847C6C",
"V  c #8A7E6C",
"C  c #81776B",
"Z  c #857F71",
"A  c #8B7F71",
"S  c #85816C",
"D  c #8C816E",
"F  c #90856F",
"G  c #8C8473",
"H  c #8B8579",
"J  c #8D897C",
"K  c #8F8875",
"L  c #918674",
"P  c #948A75",
"I  c #9A8B76",
"U  c #948B7A",
"Y  c #9A8D7B",
"T  c #97917C",
"R  c #9C927D",
"E  c #A1947E",
"W  c #7B7C81",
"Q  c #958E82",
"!  c #969281",
"~  c #9C9382",
"^  c #9F9886",
"/  c #9A968A",
"(  c #9E998C",
")  c #9E9F91",
"_  c #A39583",
"`  c #A59984",
"'  c #A99A86",
"]  c #A59B8B",
"[  c #AB9D8A",
"{  c #A89785",
"}  c #B09F8D",
"|  c #A39E92",
" . c #AA9E90",
".. c #AEA08C",
"X. c #A6A18D",
"o. c #B2A28E",
"O. c #B5AA8E",
"+. c #A2A192",
"@. c #ACA395",
"#. c #ABA59A",
"$. c #AEAA9F",
"%. c #A7A29E",
"&. c #B4A592",
"*. c #B8A794",
"=. c #B6A994",
"-. c #BBAB96",
";. c #B4AB9C",
":. c #BDAD99",
">. c #B0A69C",
",. c #BEB09B",
"<. c #BCB195",
"1. c #ADACA5",
"2. c #B4ADA1",
"3. c #B9AFA3",
"4. c #B6B0A2",
"5. c #BCB2A5",
"6. c #B5B3A9",
"7. c #BAB5AA",
"8. c #BDB9AD",
"9. c #BEBAB1",
"0. c #C2AF97",
"q. c #C0AF9B",
"w. c #C0B097",
"e. c #C2B29D",
"r. c #C9B69E",
"t. c #C6B5A1",
"y. c #C8B7A3",
"u. c #C7B8A3",
"i. c #CAB9A5",
"p. c #C3BAAD",
"a. c #CDBCA9",
"s. c #C1B7AD",
"d. c #D2BFA7",
"f. c #D1BEAA",
"g. c #C3BDB2",
"h. c #C9BFB3",
"j. c #CFC0AB",
"k. c #D3C1AD",
"l. c #D8C2AD",
"z. c #C5C1B3",
"x. c #CAC2B5",
"c. c #CBC5BB",
"v. c #CECABF",
"b. c #D6C5B2",
"n. c #DAC7B2",
"m. c #DCCAB5",
"M. c #D1CABF",
"N. c #DFCDB9",
"B. c #E1CFBB",
"V. c #E2CCB5",
"C. c #E4D0BB",
"Z. c #E9D3BE",
"A. c #C5C7C4",
"S. c #C6C8C7",
"D. c #CACBC5",
"F. c #C7C9C8",
"G. c #CACCCB",
"H. c #D3CEC3",
"J. c #D4CEC5",
"K. c #CED0CE",
"L. c #D7D2C5",
"P. c #D9D1C4",
"I. c #D6D3CA",
"U. c #DBD5CB",
"Y. c #DADACE",
"T. c #CDCCD2",
"R. c #D1D1D5",
"E. c #D6D8D7",
"W. c #DFDBD1",
"Q. c #E1DACE",
"!. c #E8D7C7",
"~. c #E5DED3",
"^. c #E4E2D5",
"/. c #E9E3D6",
"(. c #E5E1DA",
"). c #EAE5DB",
"_. c #ECE8DF",
"`. c #F0E9DF",
"'. c #EEEBE3",
"]. c #EAE7E0",
"[. c #F1EDE4",
"{. c #F1EFED",
"}. c #F5F1E6",
"|. c #F4F3ED",
" X c #F9F5ED",
".X c #FBF9EE",
"XX c #F5F8EF",
"oX c #F6F5F2",
"OX c #F9F6F3",
"+X c #F7F8F4",
"@X c #FBFAF5",
"#X c #F7F7F9",
"$X c #FBF7F8",
"%X c #F7F9F8",
"&X c #FEFDFA",
/* pixels */
"%XOXOX@XOXXXOX#X@X.X#XOX%XOX%X%X&X@X.X}.}.@X@X@X&X&X&X@X&X&XOXoX X}.}. X'.XX&X&X#X@X@X@XOX XOX@X&X&X&X&X&X&X&X&X$X#XXXOX@X@X+X%X#X X#X@X@X$X",
"#X#X+X@X@X&X@X#X X XXXoX&X&XOX@XP.z.,.;.5.p.h.c.H.Q./.Q.M.s.:.>.2.:.5.t.5.2.5.h.b.x.y.g.h.s.3.&.5.p.x.v.c.h.H.Q.OXOX&X&XOXOX%X@XOX@XOX@XOX@X",
"OX@X@X+X XoXoXoX%X&X%XoX X&X~.>.P [ :.e.:.*.*.*.&.&.-.:.y.i.y.q.e.i.e.0.q.} E [ *.*.-.q.q.q.&.} [ { _ [ [ _ V V / L.@X&X{.XX@X%XOX@XOXOXOX@X",
"@X@X@X+X#X@X%X&XoXoX&X&X}.7.Y T R ` o.O.0.0.0.0.:.w.r.i.d.d.i.r.d.C.V.n.!.Z.f.f.r.r.y.i.y.r.e.0.q.q.*.:.q.} { _ D C ] W.&X&XoX%XOXoXOX#X@X@X",
"@XOXXXOXOX@XOX X&X&X@XU.] Y ~ E Y Y ' q.e.*.0.e.r.j.n.m.l.k.f.f.f.V.C.V.V.f.f.f.a.a.i.y.i.y.e.e.q.t.y.e.-.} _ _ ] U B A #.W.@X&X&XoX%XoX&X|.",
"@X@X@XoXOXOXOX@X@X'.s.~ ~ R R ` _ Q ' e.m.B.V.P.n.k.i.d.a.f.a.a.a.t.t.i.r.y.i.d.i.i.p.i.y.p.i.i.i.f.i.y.y.y.:.&._ ] _ P L [ x.Q.}.XX&X&X&X|.",
"|.@X%X%X@X&X.X[.p. .~ { [ ` ` ~ &.t.f.f.f.f.a.a.u.u.y.i.u.r.r.y.f.y.q.i.i.i.i.i.y.i.f.i.y.i.a.d.b.f.t.*.*.-.:.q.q.} _ [ -.,.:.&.=.i.U.). X&X",
"%X%XOX+X&XOXP.@._ _ { [ { {  .:.a.i.a.y.y.i.y.i.u.u.y.i.i.y.y.y.t.a.i.i.i.i.r.y.r.r.r.i.k.V.n.l.0.*.*.-.q.q.-.:.q.e.t.e.-.-.-.:.-.w.o.*.7.^.",
".XXXOXoX&X!.{ { { [ } { _ &.e.a.i.i.i.i.y.y.y.y.y.i.i.y.y.y.i.i.i.y.y.i.i.i.y.y.t.f.m.B.m.a.e.-.<.;.-.-.:.:.:.:.:.e.a.f.f.t.-.-.:.=.,.;.U z.",
"@X|.%X&XU.p.}  .[ _ { { *.a.i.q.y.y.y.t.y.i.i.y.i.i.i.y.y.y.y.y.t.y.i.y.t.y.a.f.m.b.f.t.q.-.*.-.:.<.:.:.-.-.:.q.q.t.i.i.a.a.t.-.&.;.<...V c.",
"+X+X@X`.;.*.q.:.[ _ } t.f.i.a.f.f.f.f.f.i.i.y.y.y.y.y.i.a.f.f.f.f.B.V.f.a.f.f.f.y.t.-.*.-.-.,.,.-.;.:.:.-.-.q.e.i.i.i.q.q.-.*.} &.<.O.] Z Y.",
"oX&X@XP.*.*.q.:.} q.a.i.i.l.!.f.N.B.V.V.B.B.B.B.m.m.b.b.f.b.n.n.B.B.f.f.f.f.i.q.:.*.-.:.,.,.:.-.-.-.:.-.-.q.e.i.i.i.i.q.*.*.*.*.<.-.[ _ H '.",
"%X%X&XN.q.0.*.q.f.f.a.q.f.!.V.r.y.y.i.i.f.f.f.f.f.f.p.i.t.t.t.t.i.t.y.i.y.y.q.-.:.:.:.:.;.-.=.=.<.-.-.:.q.t.y.i.i.e.-.:.q.q.q.:.:.=.` Y Q |.",
"%XoX&XL.} 0.0.f.V.y.e.y.n.!.V.r.i.y.y.y.t.t.i.t.y.y.i.i.i.i.i.i.y.t.y.y.e.:.:.q.:.:.-.-.-.-.:.e.:.:.:.:.y.i.i.i.e.:.=.:.:.*.&.:.-.&.` D ~ OX",
"@X%X&Xg.A } i.f.q.a.f.y.a.C.V.y.i.y.i.i.i.i.i.i.t.y.i.y.i.y.t.t.i.i.i.t.q.-.:.:.:.:.:.:.-.-.-.:.:.:.:.t.i.i.y.e.-.-.:.e.-.-.:.e.:.o.[ A #.&X",
" X@X%X1.A C *.f.y.y.a.i.f.C.n.y.y.i.i.y.i.i.i.i.i.i.i.y.y.i.i.i.y.i.t.:.:.q.:.-.:.:.:.:.:.:.:.-.-.:.e.i.i.i.e.:.:.:.-.-.:.:.:.*.:._ ' U g.&X",
"&XoX@X .G A o.a.y.y.i.a.a.a.i.i.i.i.i.y.i.y.i.y.i.i.i.i.i.i.i.y.a.e.,.-.-.:.:.-.-.:.-.-.:.:.q.-.:.e.i.a.y.q.-.*.q.-.:.:.:.-.:.:.=.E [ C U.&X",
"%XOXOX) G V &.a.t.y.y.i.i.y.y.i.i.y.y.i.y.i.y.i.y.i.i.i.i.t.i.i.,.,.-.-.:.:.:.:.-.-.<.:.:.-.:.:.e.y.y.y.e.q.-.-.q.-.:.:.-.-.:.:.*._ ` U ).&X",
"oX@X'.U A V [ f.y.y.i.i.y.t.y.i.y.i.y.y.y.i.i.i.i.i.y.i.i.i.y.t.,.-.-.:.:.:.:.:.;.<.:.:.:.*.q.y.i.y.y.e.q.q.:.:.:.-.:.:.-.:.e.:.&.E Y Q OX&X",
"%X&X/.H L A ;.m.t.y.i.i.i.i.i.i.i.y.i.i.i.y.i.y.i.t.t.t.a.i.e.q.:.<.-.:.:.:.:.:.<.-.-.:.:.:.e.i.a.y.q.:.-.-.:.:.:.-.:.:.-.:.e.-.{ _ B ( &XOX",
"+X&XE.Z U A -.b.k.k.k.k.k.f.a.y.y.i.y.i.y.i.y.i.i.i.y.i.y.t.:.*.:.:.:.:.:.-.:.:.:.:.:.=.q.e.i.i.y.e.,.-.:.:.:.-.:.:.:.:.:.,.:.*._ ~ c 8.&X#X",
"XX&Xc.Z L V } t.*.*.q.t.i.a.i.y.i.y.i.y.i.y.y.i.t.i.a.y.q.:.:.:.:.:.:.:.:.:.:.:.:.:.:.:.e.i.i.y.e.:.-.-.:.:.:.-.:.:.:.-.-.:.-.o._ ~ U ).&X$X",
"OX&X9.S P F &.y.i.a.i.a.i.y.t.q.y.i.i.i.i.y.i.y.y.y.i.q.q.-.:.:.-.:.:.-.:.:.:.:.:.:.:.e.y.u.y.e.:.:.-.-.:.:.:.-.:.-.:.:.:.:.-...] Y 7.&X&X$X",
"+X@X2.C G D -.i.t.y.y.y.y.y.y.i.i.y.y.i.y.i.y.i.a.y.q.q.:.q.:.:.:.:.:.:.:.:.-.-.:.:.:.t.i.t.e.,.:.:.-.-.-.:.:.-.-.-.:.:.:.<.-.o.{ P /.@X$X#X",
"oX@X( D U A q.f.i.i.i.y.y.y.y.y.i.i.i.i.i.y.i.i.t.e.:.-.:.:.:.:.:.-.:.:.:.-.=.:.<.:.u.i.i.5.-.-.:.:.:.:.:.:.:.:.<.:.:.<.:.:.-.' Y 5.&XXXOX+X",
"OX X! S Y Y i.B.b.f.f.f.f.a.y.t.y.i.y.i.i.i.y.t.e.:.-.:.:.<.:.:.:.-.-.:.:.-.:.:.<.e.i.i.,.:.-.,.:.:.-.:.:.-.:.:.:.-.-.:.:.e.&._ _ U.&X|.&X@X",
"&X^.^ T _ ] i.k.y.i.a.f.f.f.f.f.i.i.i.i.i.i.t.q.-.-.-.:.:.:.:.:.:.:.:.:.:.:.:.:.e.a.a.,.-.-.:.,.-.:.-.:.:.-.:.-.:.:.*.-.q.:.[ Y #. X%XoX&X@X",
"&X8.T T L &.a.t.y.i.i.i.i.i.a.p.i.y.i.i.i.t.q.:.-.:.:.:.:.-.-.:.:.<.:.:.-.:.:.,.u.i.,.-.-.:.:.-.:.:.:.:.:.:.:.-.:.:.:.-.q.&._ E g.&X%X%X@X@X",
").J P D F t.i.t.i.i.y.t.y.y.i.i.y.i.i.i.t.,.:.-.:.,.:.:.-.-.:.:.:.:.:.:.-.:.t.t.i.,.-.:.:.:.=.:.*.:.:.:.:.:.-.:.:.:.-.q.:.[ { [ ).@X%X@XOXOX",
"I.S F S ` j.t.t.y.y.y.y.i.i.i.i.i.i.t.t.,.:.-.-.:.-.:.:.-.:.:.:.*.:.:.:.:.e.i.u.,.:.-.:.:.:.:.:.:.:.:.:.-.:.:.:.:.:.:.3.*.` { *.&X@X+X%X.XOX",
"U.H G S -.i.u.a.i.i.i.i.i.y.t.t.i.u.,.,.:.:.:.:.:.-.-.:.:.<.:.:.:.:.:.<.,.u.t.,.:.:.:.:.:.:.:.:.:.:.*.:.:.:.:.:.-.-.:.:.} _ { [ ).@XOXoX@XOX",
"c.C F R i.i.j.t.i.i.y.y.i.i.i.i.i.t.,.-.:.:.:.:.:.-.-.:.:.-.:.-.:.;.<.,.u.a.e.-.:.:.:.-.:.:.:.=.:.:.:.:.-.:.:.:.:.:.:.*.{ _ _ Q p.&XOXOX@XOX",
"g.A V q.p.t.i.y.y.i.i.i.i.y.y.y.:.:.:.-.-.:.-.:.-.:.,.:.:.-.:.:.-.-.e.u.a.,.<.:.:.:.:.:.:.-.:.:.-.-.:.-.:.:.-.-.=.e.r.=.` R R _ R ^.&X%XoX@X",
"z._ q.f.i.a.i.y.i.y.y.i.i.i.t.q.:.-.:.:.:.:.:.:.:.-.-.-.:.:.:.:.,.e.a.t.,.-.:.:.:.:.-.:.=.:.:.:.:.:.:.-.:.:.,.e.t.e.u.u.-._ R ~ R #.&XOX&XXX",
"L.U { q.f.h.y.a.i.y.y.y.i.i.q.-.-.<.:.:.:.-.:.-.-.-.-.:.:.:.:.:.e.a.u.,.-.-.:.,.<.:.-.-.:.:.:.:.=.-.:.,.:.e.t.i.a.t.a.j.t.&.` ` R P U.&X@X@X",
"^._ I I o.*.-.-.y.i.i.y.t.q.0.:.:.:.-.:.:.:.:.:.:.:.,.:.=.=.<.u.t.t.,.<.-.:.:.-.-.-.,.:.:.:.:.-.-.:.e.t.y.y.i.a.t.u.t.e.-.o.Y V P _ @.}.XX&X",
").( Y R p.j.t.,.y.i.i.t.:.:.-.:.:.:.:.-.:.:.-.-.-.:.:.-.<.,.t.u.t.,.=.-.:.,.-.-.-.:.:.:.:.:.:.<.e.t.i.i.i.y.y.i.y.i.y.t.e.e...P P E T U.&X@X",
"}.#.] R ` _ ~ i.i.i.t.:.:.-.:.-.:.:.:.:.:.-.:.:.:.-.=.-.,.t.i.t.,.-.-.:.,.-.-.,.:.:.:.:.=.:.,.t.y.i.y.i.i.i.i.y.i.y.q.q.t.i.i.5.[ P U p..X#X",
"&X7.H c v n Y ,.i.t.:.-.:.:.-.-.:.:.-.:.:.:.:.:.:.:.-.,.t.a.t.,.-.:.:.:.:.-.:.:.:.:.:.:.,.t.t.i.y.y.t.y.i.i.i.t.u.:.*.*.*.:.e.t.@.D V | '.&X",
"@XD.] x.8.B ] j.,.:.-.:.:.:.,.,.;.-.:.:.:.:.:.:.=.<.e.i.a.i.,.-.-.,.:.-.-.,.:.-.:.=.:.:.t.i.i.i.i.i.y.i.i.y.e.:.=.:.:.:.t.t.t.u.U B c A '.&X",
"@XXXOX&X2.V ;.t.-.-.:.:.:.:.:.:.-.:.:.:.:.:.:.-.<.,.u.i.u.<.-.:.<.<.:.:.:.q.:.-.-.q.e.y.i.y.i.y.y.i.i.t.q.-.:.:.:.t.a.i.i.i.u.U k c n I.&XoX",
"@X+X&X'.J P :.-.:.:.:.:.-.:.-.,.-.:.:.:.-.-.-.q.e.t.u.i.5.<.:.:.;.-.;.:.:.:.:.-.q.e.y.y.i.i.i.i.i.t.q.q.q.t.y.y.i.a.t.:.a.p.G c S x v.&XOXoX",
" XOX&Xc.B _ :.-.-.-.-.-.-.-.-.:.-.:.<.:.*.:.q.q.t.u.t.,.:.:.:.-.-.-.:.:.-.-.q.e.y.y.y.i.y.i.i.i.e.e.q.e.y.a.a.i.t.t.y.k.t.Z n n g g.@XoX@XOX",
"@XOX&X#.U E o.q.=.-.-.:.,.:.:.-.:.-.:.-.:.q.q.r.a.t.e.-.-.:.:.:.:.<.-.-.:.q.e.i.y.y.i.i.y.y.y.y.q.e.i.i.i.i.y.y.i.y.a.t.U h G z 1.@X@XOX&XoX",
"@XOX@X#.T P o.q.-.-.-.-.:.:.:.-.:.-.-.-.q.e.i.a.i.e.-.-.:.:.-.:.,.-.-.-.,.t.y.i.i.y.i.y.i.y.y.t.t.i.i.i.y.t.y.i.a.i.i.:.D G b ) OX@XoX&X%X@X",
"oXOX&Xc.D D [ -.:.:.*.=.&.-.-.-.:.:.:.:.q.t.i.i.e.:.-.-.:.-.-.:.-.-.:.e.t.i.i.y.y.i.y.i.i.i.y.t.i.i.y.y.y.i.a.i.i.t.y.k...G C c.&X+XOX|.@XOX",
"OX%X&X^.S T ' *.:.:.*.&.-.-.-.-.:.:.:.q.t.i.y.t.:.:.-.:.:.:.-.:.:.,.e.t.i.i.i.y.i.i.y.i.i.i.i.y.t.t.t.y.y.i.i.t.y.i.y.y.e.D P _ +X+X@X%X&X{.",
"%XoX&X].U _ Y *.<.:.:.:.:.:.:.-.-.-.q.y.i.i.t.q.-.q.:.-.-.:.q.-.,.e.i.i.i.i.u.i.y.y.y.t.y.y.i.y.t.t.r.t.t.t.t.y.t.y.y.y.i.E D H (.&XXX[.@X&X",
"OX%XoX&X;.P E ` ,.<.:.:.-.-.,.:.<.,.i.u.a.t.5.-.-.<.:.:.-.-.q.q.y.i.y.y.y.y.y.i.i.y.i.y.i.y.y.i.i.i.i.a.i.i.a.i.i.d.t.t.y.q.A V 8.&X@XoXoX+X",
"OX%X#X&Xp.I E ` :.=.=.-.:.:.:.-.,.e.i.u.u.,.:.:.-.-.=.:.:.q.e.t.i.i.i.i.i.i.i.i.t.y.y.i.i.i.i.i.y.i.i.y.i.y.i.i.a.f.a.i.i.e.V c 1.OXoX%XOX@X",
"@XoX@X&XU.T _ _ e.:.:.r.e.-.-.-.u.u.a.i.e.<.:.:.:.-.:.:.q.e.i.i.y.y.y.y.i.y.y.t.i.i.i.i.y.t.t.t.f.i.i.y.y.y.y.y.t.y.t.t.y.t.L c @.@X%XoX@X@X",
"OXOX&X@X[.] R E F R ' o.-.-.e.i.t.a.t.t.,.<.:.:.:.:.:.,.t.y.i.i.i.y.i.y.i.y.y.i.y.i.y.i.i.i.a.i.i.i.i.i.i.y.i.i.i.i.i.t.y.y.] V ( XX@XoX@X@X",
"&XoXOXOX@X;.Y R R o.-.-.-.,.r.i.i.i.u.,.:.q.:.-.=.:.:.t.i.a.i.i.i.a.i.y.a.i.i.i.i.i.y.i.i.f.i.y.t.t.y.i.i.i.i.i.a.i.i.e.t.t. .A Z /.&XoX$X&X",
"@XOX@XXX&Xc.Y E X.-.,.;.,.i.t.i.y.y.5.:.-.:.:.*.,.e.t.i.i.i.i.t.q.q.q.q.q.q.t.e.y.t.e.t.y.e.q.-.i.i.y.y.y.y.t.t.e.,.,.&.*.:.&.U C c.&X%XOX@X",
"$XOXOXoX&X~./ R ..<.<.,.t.i.y.i.i.t.:.:.:.-.q.q.y.i.i.i.y.y.e.q.q.q.q.q.q.:.-.-.*.q.q.q.q.e.e.q.y.i.t.t.t.q.q.q.e.-.:.&.*.q.:.Q V $.@XOXOXOX",
"$X@XOX@X%X X~ _ R o.,.t.i.t.t.a.i.:.-.:.:.-.:.y.i.i.i.y.t.e.r.t.y.i.a.i.t.r.q.q.q.q.t.y.y.e.e.e.q.q.q.q.:.*.q.q.:.=.:.q.e.q.&.b b ~ {.@X$XOX",
"+X+X&X%X X@X2.~ T E =.,.u.f.e.i.q.-.*.-.e.r.t.i.t.y.i.i.t.i.a.r.{ &.,.<.:.-.-.:.:.&...X...=.-.-.:.-.:.:.<.-.-.*.<.O.-.&.&...G b x / &X@X$X@X",
"OXoXoX&X@X@XU.G P T E ,.i.e.r.r.3.:.-.-.q.y.i.a.a.u.t.i.a.u...I P L ` [ @.,.-.:.:.=.&.&.-.,.5.:.:.:.-.-.:.,.,.:.=.-.-.Y B ~ ] C z I.&X}.&XOX",
" XOXOX%XOXXX&X5.S U ~ &.O.-.r.-.:.:.q.i.f.i.y.a.t.p.i.i.5.~ S H D E ` P _ *.[ :.:.;.e.i.u.,.:.:.e.e.,.<.:.:.-.-.,.;.Y L K G T X.7.&X#X&X&X@X",
".X&XOX|.OXXX&XXXX.c h V Y [ } o.&.&.&.o.&.&.*.:.i.e.a.=.D S J K U ^ U T Y L _ Y _ ` [ o.&.=.-.:.` [ o.=.-.:.:.q.:.Y A L B H z..X@XOX X&X{.$X",
"@X@X@X X&X&X|.&X[.v.6.J N L Y ~ G R ` R R E E R -.e.[ F L Y V v 9.'.h.! G G Y Y ~ Y L D P ` E P D F T ` [ ..&.&.F L P B ( (.&X&XOX@XOX%XXX&X",
" X@XoXOXoX#XoXOX@X@X@X|.x.Q C z j h h v K U R ` { I P D U G B ] &X&X&X'.g.Q j h x x j c S K K N v N N B S G U ~ T v H $.].&X{.%XoXOXoXOX#X+X",
"oXOX%XOXoXoX&XoX+X@X{.&X&X{.J.%./ J J ^ ] J x j j h B G G n Q H.oX{.%X&X&X'.8.7.6.7.7.$.+./ J S n n b x c n H ! +.#.W.@X@XOXoXoX&XoX|.@X XXX",
"&X&X&X&X&X&X%X&X&X%X&X&X&X&X&X&X&X&X&X&X&XXXI.6.( +.Y.XX{.&X%X&X&X&X&X&X&X&X&X&X&X&X&X&X&X&X@X&XXX|.[._.).'. X&X&X&X&X&X&X&X&X&X&X&X&X&X&X&X",
"G.G.G.G.T.F.F.G.G.S.G.D.G.K.c.S.T.G.G.T.T.R.R.R.T.T.T.R.T.K.R.G.G.F.G.F.G.F.G.F.T.G.G.T.G.T.T.G.R.I.G.G.E.G.G.R.G.G.G.S.F.G.F.S.G.S.F.G.F.D.",
"+ O .   + = + . X X o % + o o & + + + + O # + + + + + # + + + + + * + % + @ + + O + + + + # + @   O + + = @ + + + & # @ $ = @ @ + @ &   = @ ",
": : 3 3 : > 1 > 0 r w : ; 7 q 2 = = = ; - = = = = ; = = = = = = - = = - : ; ; ; ; = = = = = = = : : : = % + & & % * o % + o & & & & % % ; ; ",
"O - r l s u i p f M W m m M d , * * = = = = * * = = = * = & = = # * * # # # # # * * * = * * * * + # 2 r t r y u e t 8 t r r s s i a p a - @ ",
"- * > 6 3 < 3 5 < w w w e e 5 O * * * * * * = * = * * # * * * = = = # = = = # = = * * # * * * = * # , w 6 6 5 6 8 w 5 6 6 3 8 e 5 5 9 e + + ",
"= % * = = = = o % % X X % % * ; = = = = = $ $ = $ * * = = = = = = = = = * * = = * = = = = = $ = = = * % o % % % X % X * % % % % * % o o : : "
};
